<?xml version="1.0" encoding="UTF-8" standalone="no"?>
<!DOCTYPE svg PUBLIC "-//W3C//DTD SVG 1.1//EN" "http://www.w3.org/Graphics/SVG/1.1/DTD/svg11.dtd">
<svg width="100%" height="100%" viewBox="0 0 1333 1000" version="1.1" xmlns="http://www.w3.org/2000/svg" xmlns:xlink="http://www.w3.org/1999/xlink" xml:space="preserve" xmlns:serif="http://www.serif.com/" style="fill-rule:evenodd;clip-rule:evenodd;stroke-linejoin:round;stroke-miterlimit:2;">
    <g transform="matrix(6.101519,0,0,6.101519,330.927929,198.392613)">
        <g transform="matrix(1,0,0,1,5,10)">
            <path d="M17.355,58.387C18.507,58.387 19.437,57.457 19.437,56.305L19.437,38.731C19.437,37.579 18.507,36.649 17.355,36.649C16.203,36.649 15.273,37.579 15.273,38.731L15.273,56.305C15.273,57.457 16.203,58.387 17.355,58.387Z" style="fill-rule:nonzero;"/>
        </g>
        <g transform="matrix(1,0,0,1,5,10)">
            <path d="M15.27,89.559C15.27,90.711 16.2,91.641 17.352,91.641L74.61,91.641C75.762,91.641 76.692,90.711 76.692,89.559L76.692,47.747L81.227,51.962C81.626,52.333 82.137,52.52 82.645,52.52C83.204,52.52 83.758,52.298 84.169,51.856C84.954,51.016 84.903,49.696 84.059,48.911L76.032,41.45C76.032,41.45 76.024,41.446 76.02,41.442L41.028,8.903C40.231,8.161 38.989,8.161 38.192,8.903L19.434,26.348L19.434,10.938C19.434,9.786 18.505,8.856 17.352,8.856C16.2,8.856 15.27,9.786 15.27,10.938L15.27,31.133C15.27,31.961 15.762,32.711 16.524,33.044C17.286,33.372 18.169,33.223 18.774,32.657L39.614,13.274L72.532,43.876L72.532,87.478L51.891,87.478L51.891,56.029C51.891,54.876 50.962,53.947 49.809,53.947L29.422,53.947C28.27,53.947 27.34,54.876 27.34,56.029L27.34,87.478L19.442,87.478L19.442,64.638C19.442,63.485 18.512,62.556 17.36,62.556C16.207,62.556 15.278,63.485 15.278,64.638L15.278,89.56L15.27,89.559ZM31.5,58.11L47.719,58.11L47.719,87.477L31.5,87.477L31.5,58.11Z" style="fill-rule:nonzero;"/>
        </g>
    </g>
    <g transform="matrix(9.842639,0,0,9.842639,-4238.830088,-1461.920447)">
        <path d="M447.921,163.511C448.022,163.511 448.147,163.507 448.296,163.501C448.445,163.494 448.557,163.507 448.632,163.541C448.686,163.568 448.728,163.602 448.759,163.643C448.789,163.683 448.821,163.727 448.855,163.775C448.896,163.843 448.937,163.91 448.977,163.978C449.018,164.046 449.062,164.114 449.109,164.181C449.299,164.479 449.487,164.774 449.673,165.065C449.859,165.356 450.044,165.651 450.227,165.949C450.295,166.057 450.361,166.162 450.425,166.264C450.489,166.366 450.555,166.467 450.623,166.569C450.65,166.616 450.679,166.662 450.709,166.706C450.74,166.75 450.782,166.779 450.836,166.792C450.891,166.806 450.936,166.794 450.974,166.757C451.011,166.72 451.036,166.687 451.05,166.66C451.118,166.565 451.18,166.467 451.238,166.366C451.295,166.264 451.355,166.166 451.416,166.071C451.598,165.78 451.778,165.489 451.954,165.197C452.13,164.906 452.31,164.618 452.492,164.334C452.547,164.246 452.599,164.159 452.65,164.075C452.701,163.99 452.753,163.907 452.807,163.826C452.835,163.778 452.862,163.734 452.889,163.694C452.916,163.653 452.95,163.616 452.99,163.582C453.051,163.534 453.138,163.511 453.249,163.511L453.59,163.511C453.644,163.511 453.698,163.512 453.752,163.516C453.806,163.519 453.851,163.534 453.884,163.562C453.932,163.595 453.944,163.645 453.92,163.709C453.896,163.773 453.874,163.819 453.854,163.846C453.8,163.927 453.749,164.007 453.702,164.085C453.654,164.163 453.603,164.239 453.549,164.313C453.515,164.361 453.485,164.408 453.458,164.456C453.431,164.503 453.4,164.554 453.366,164.608C453.129,164.953 452.899,165.302 452.675,165.654C452.452,166.007 452.228,166.362 452.005,166.721C451.93,166.83 451.859,166.936 451.791,167.041C451.724,167.146 451.653,167.256 451.578,167.371C451.531,167.446 451.485,167.515 451.441,167.58C451.397,167.644 451.358,167.724 451.324,167.819C451.311,167.859 451.304,167.905 451.304,167.956L451.304,169.972C451.304,170.027 451.307,170.084 451.314,170.145C451.321,170.206 451.317,170.264 451.304,170.318L451.304,170.491C451.283,170.612 451.236,170.69 451.162,170.724C451.141,170.738 451.121,170.743 451.101,170.739C451.08,170.736 451.057,170.738 451.029,170.745C451.002,170.751 450.974,170.753 450.943,170.75C450.913,170.746 450.88,170.745 450.847,170.745L450.603,170.745C450.521,170.745 450.464,170.721 450.43,170.673C450.403,170.646 450.384,170.601 450.374,170.536C450.364,170.472 450.357,170.404 450.354,170.333C450.35,170.262 450.35,170.189 450.354,170.115C450.357,170.04 450.359,169.972 450.359,169.911L450.359,168.108C450.359,168.078 450.356,168.049 450.349,168.022L450.349,167.89C450.315,167.774 450.273,167.678 450.222,167.6C450.171,167.522 450.118,167.439 450.064,167.351L449.668,166.742C449.438,166.396 449.214,166.052 448.997,165.71C448.781,165.368 448.557,165.025 448.327,164.679C448.239,164.544 448.153,164.413 448.068,164.288C447.983,164.163 447.897,164.032 447.809,163.897C447.761,163.836 447.727,163.771 447.707,163.704C447.694,163.656 447.697,163.622 447.717,163.602C447.724,163.568 447.743,163.548 447.773,163.541C447.804,163.534 447.836,163.524 447.87,163.511C447.877,163.511 447.885,163.512 447.895,163.516C447.905,163.519 447.914,163.518 447.921,163.511Z" style="fill:rgb(51,51,51);fill-rule:nonzero;"/>
        <path d="M459.543,167.9C459.557,167.94 459.564,168.003 459.564,168.088C459.564,168.172 459.56,168.232 459.554,168.266L459.554,168.367C459.547,168.421 459.542,168.47 459.538,168.514C459.535,168.558 459.53,168.608 459.523,168.662C459.51,168.702 459.501,168.743 459.498,168.784C459.494,168.824 459.486,168.865 459.472,168.906C459.445,168.994 459.422,169.082 459.401,169.17C459.381,169.258 459.354,169.339 459.32,169.414C459.178,169.739 458.988,170.011 458.751,170.231C458.514,170.452 458.223,170.619 457.877,170.734C457.803,170.761 457.723,170.782 457.638,170.795C457.554,170.809 457.467,170.822 457.379,170.836C457.339,170.843 457.296,170.848 457.252,170.851C457.208,170.855 457.166,170.856 457.125,170.856C457.098,170.863 457.059,170.866 457.009,170.866C456.958,170.866 456.922,170.863 456.902,170.856C456.875,170.85 456.848,170.848 456.821,170.851C456.793,170.855 456.77,170.853 456.749,170.846L456.689,170.846L456.445,170.816C456.35,170.789 456.258,170.761 456.17,170.734C456.082,170.707 455.998,170.677 455.916,170.643C455.612,170.507 455.361,170.331 455.165,170.115C454.968,169.898 454.806,169.634 454.677,169.322C454.643,169.254 454.618,169.187 454.601,169.119C454.584,169.051 454.568,168.98 454.555,168.906C454.541,168.879 454.536,168.857 454.54,168.84C454.543,168.823 454.541,168.801 454.535,168.774C454.521,168.719 454.513,168.663 454.509,168.606C454.506,168.548 454.497,168.492 454.484,168.438L454.484,168.352C454.484,168.328 454.48,168.299 454.474,168.266C454.467,168.232 454.463,168.172 454.463,168.088C454.463,168.003 454.47,167.94 454.484,167.9C454.497,167.852 454.501,167.805 454.494,167.758C454.487,167.71 454.491,167.663 454.504,167.615C454.511,167.581 454.516,167.553 454.519,167.529C454.523,167.505 454.528,167.476 454.535,167.443C454.555,167.361 454.574,167.28 454.59,167.199C454.607,167.117 454.633,167.04 454.667,166.965C454.768,166.714 454.892,166.489 455.038,166.289C455.183,166.09 455.361,165.922 455.571,165.787C455.652,165.732 455.737,165.687 455.825,165.649C455.913,165.612 456.004,165.573 456.099,165.533C456.181,165.499 456.269,165.477 456.363,165.467C456.458,165.456 456.553,165.438 456.648,165.411C456.695,165.411 456.741,165.409 456.785,165.406C456.829,165.402 456.871,165.397 456.912,165.39C457.515,165.384 458.016,165.509 458.416,165.766C458.815,166.024 459.103,166.359 459.279,166.772C459.313,166.84 459.34,166.908 459.361,166.975C459.381,167.043 459.405,167.114 459.432,167.189C459.452,167.263 459.469,167.343 459.482,167.427C459.496,167.512 459.513,167.598 459.533,167.686C459.54,167.72 459.542,167.756 459.538,167.793C459.535,167.83 459.537,167.866 459.543,167.9ZM458.639,168.479C458.653,168.431 458.658,168.377 458.654,168.316C458.651,168.255 458.649,168.198 458.649,168.144C458.649,167.879 458.626,167.656 458.578,167.473C458.558,167.419 458.541,167.365 458.527,167.311C458.514,167.256 458.497,167.206 458.477,167.158C458.287,166.718 457.986,166.413 457.572,166.244C457.525,166.223 457.474,166.208 457.42,166.198C457.366,166.188 457.312,166.176 457.257,166.162C457.203,166.149 457.146,166.142 457.085,166.142L456.902,166.142L456.719,166.173C456.651,166.186 456.589,166.201 456.531,166.218C456.473,166.235 456.418,166.257 456.363,166.284C456.316,166.298 456.272,166.318 456.231,166.345C456.191,166.372 456.153,166.4 456.12,166.427C455.957,166.542 455.825,166.681 455.723,166.843C455.622,167.006 455.534,167.195 455.459,167.412C455.439,167.48 455.425,167.549 455.419,167.62C455.412,167.692 455.402,167.764 455.388,167.839C455.381,167.866 455.378,167.91 455.378,167.971C455.371,167.991 455.369,168.015 455.373,168.042C455.376,168.069 455.378,168.1 455.378,168.133L455.378,168.337C455.378,168.404 455.385,168.465 455.398,168.52L455.419,168.641C455.432,168.709 455.444,168.775 455.454,168.84C455.464,168.904 455.483,168.963 455.51,169.017C455.578,169.18 455.657,169.332 455.749,169.475C455.84,169.617 455.954,169.735 456.089,169.83C456.123,169.85 456.153,169.867 456.181,169.881C456.208,169.895 456.238,169.911 456.272,169.932C456.326,169.966 456.385,169.994 456.45,170.018C456.514,170.042 456.584,170.064 456.658,170.084C456.692,170.098 456.724,170.103 456.755,170.099C456.785,170.096 456.817,170.098 456.851,170.104C456.871,170.111 456.914,170.118 456.978,170.125C457.042,170.132 457.092,170.128 457.125,170.115C457.152,170.108 457.18,170.106 457.207,170.11C457.234,170.113 457.261,170.108 457.288,170.094C457.342,170.081 457.396,170.069 457.45,170.059C457.505,170.049 457.555,170.033 457.603,170.013C457.833,169.918 458.019,169.786 458.162,169.617C458.304,169.447 458.422,169.248 458.517,169.017C458.551,168.936 458.573,168.85 458.583,168.758C458.593,168.667 458.612,168.574 458.639,168.479Z" style="fill:rgb(51,51,51);fill-rule:nonzero;"/>
        <path d="M460.864,165.512L461.159,165.512C461.26,165.512 461.332,165.539 461.372,165.594C461.406,165.648 461.425,165.715 461.428,165.797C461.431,165.878 461.433,165.959 461.433,166.041L461.433,169.002C461.433,169.161 461.45,169.298 461.484,169.414C461.592,169.718 461.796,169.932 462.094,170.054C462.243,170.115 462.422,170.137 462.632,170.12C462.842,170.103 463.011,170.067 463.14,170.013C463.364,169.918 463.541,169.798 463.673,169.652C463.805,169.507 463.909,169.315 463.983,169.078C464.004,169.024 464.017,168.97 464.024,168.916C464.031,168.862 464.041,168.804 464.054,168.743C464.061,168.709 464.063,168.679 464.059,168.652C464.056,168.625 464.061,168.594 464.075,168.56L464.075,168.347C464.088,168.293 464.092,168.23 464.085,168.159C464.078,168.088 464.075,168.022 464.075,167.961L464.075,166.091C464.075,166.01 464.073,165.924 464.07,165.832C464.066,165.741 464.082,165.668 464.115,165.614C464.142,165.58 464.175,165.558 464.212,165.548C464.249,165.538 464.295,165.526 464.349,165.512L464.501,165.512C464.583,165.512 464.656,165.516 464.72,165.522C464.784,165.529 464.833,165.56 464.867,165.614C464.901,165.648 464.918,165.697 464.918,165.761L464.918,170.298C464.918,170.379 464.916,170.455 464.913,170.526C464.91,170.597 464.884,170.65 464.837,170.684C464.81,170.704 464.769,170.719 464.715,170.729C464.661,170.739 464.601,170.746 464.537,170.75C464.473,170.753 464.412,170.751 464.354,170.745C464.297,170.738 464.254,170.724 464.227,170.704C464.193,170.677 464.163,170.633 464.136,170.572C464.129,170.545 464.124,170.507 464.12,170.46C464.117,170.413 464.112,170.367 464.105,170.323C464.098,170.279 464.085,170.243 464.065,170.216C464.044,170.189 464.014,170.179 463.973,170.186C463.919,170.199 463.865,170.238 463.811,170.303C463.756,170.367 463.706,170.416 463.658,170.45C463.509,170.558 463.34,170.653 463.15,170.734C463.076,170.768 462.999,170.79 462.922,170.8C462.844,170.811 462.764,170.826 462.683,170.846C462.649,170.853 462.613,170.853 462.576,170.846C462.539,170.839 462.503,170.843 462.469,170.856C462.402,170.87 462.341,170.87 462.287,170.856L462.185,170.856C462.151,170.843 462.112,170.836 462.068,170.836C462.024,170.836 461.985,170.833 461.951,170.826C461.924,170.812 461.899,170.807 461.875,170.811C461.851,170.814 461.823,170.809 461.789,170.795C461.735,170.782 461.682,170.768 461.631,170.755C461.58,170.741 461.528,170.721 461.474,170.694C461.298,170.619 461.15,170.519 461.032,170.394C460.913,170.269 460.817,170.118 460.742,169.942C460.715,169.881 460.695,169.818 460.681,169.754C460.668,169.69 460.654,169.624 460.641,169.556C460.627,169.515 460.622,169.476 460.625,169.439C460.629,169.402 460.624,169.359 460.61,169.312C460.603,169.298 460.6,169.28 460.6,169.256C460.6,169.232 460.597,169.21 460.59,169.19L460.59,169.089C460.583,169.061 460.581,169.029 460.585,168.992C460.588,168.955 460.59,168.919 460.59,168.885L460.59,165.776C460.59,165.715 460.603,165.665 460.631,165.624C460.658,165.577 460.708,165.543 460.783,165.522C460.796,165.516 460.81,165.514 460.824,165.517C460.837,165.521 460.851,165.519 460.864,165.512Z" style="fill:rgb(51,51,51);fill-rule:nonzero;"/>
        <path d="M469.338,163.521C469.432,163.521 469.532,163.523 469.637,163.526C469.742,163.529 469.815,163.558 469.856,163.612C469.89,163.66 469.907,163.729 469.907,163.821L469.907,165.472C469.907,165.499 469.905,165.526 469.901,165.553C469.898,165.58 469.9,165.607 469.907,165.634C469.913,165.654 469.915,165.678 469.912,165.705C469.908,165.732 469.91,165.756 469.917,165.776C469.93,165.831 469.939,165.881 469.942,165.929C469.945,165.976 469.981,166 470.049,166C470.062,165.986 470.078,165.978 470.094,165.974C470.111,165.971 470.127,165.963 470.14,165.949C470.181,165.922 470.218,165.893 470.252,165.863C470.286,165.832 470.323,165.8 470.364,165.766C470.438,165.712 470.521,165.663 470.613,165.619C470.704,165.575 470.797,165.536 470.892,165.502C470.946,165.489 471.004,165.477 471.065,165.467C471.126,165.456 471.183,165.444 471.237,165.431C471.265,165.417 471.292,165.412 471.319,165.416C471.346,165.419 471.376,165.417 471.41,165.411C471.444,165.397 471.5,165.39 471.578,165.39C471.656,165.39 471.712,165.397 471.745,165.411L471.842,165.411C471.872,165.411 471.905,165.414 471.938,165.421C471.993,165.434 472.047,165.444 472.101,165.451C472.155,165.458 472.209,165.468 472.264,165.482C472.297,165.495 472.325,165.504 472.345,165.507C472.365,165.511 472.392,165.519 472.426,165.533C472.501,165.566 472.572,165.602 472.64,165.639C472.707,165.676 472.775,165.719 472.843,165.766C472.91,165.827 472.975,165.898 473.036,165.98C473.076,166.041 473.114,166.101 473.148,166.162C473.181,166.223 473.215,166.291 473.249,166.366C473.269,166.413 473.285,166.46 473.295,166.508C473.305,166.555 473.317,166.606 473.33,166.66C473.344,166.694 473.351,166.728 473.351,166.762C473.351,166.796 473.354,166.833 473.361,166.874C473.374,166.908 473.379,166.941 473.376,166.975C473.373,167.009 473.378,167.043 473.391,167.077L473.391,167.178C473.398,167.212 473.4,167.25 473.396,167.29C473.393,167.331 473.391,167.368 473.391,167.402L473.391,169.952C473.391,170.006 473.393,170.072 473.396,170.15C473.4,170.228 473.4,170.303 473.396,170.374C473.393,170.445 473.385,170.511 473.371,170.572C473.357,170.633 473.337,170.673 473.31,170.694C473.263,170.734 473.175,170.755 473.046,170.755L472.787,170.755C472.702,170.755 472.64,170.728 472.599,170.673C472.565,170.626 472.548,170.57 472.548,170.506L472.548,167.94C472.548,167.758 472.55,167.563 472.553,167.356C472.557,167.15 472.535,166.972 472.487,166.823C472.406,166.593 472.27,166.423 472.081,166.315C472.027,166.281 471.969,166.252 471.908,166.228C471.847,166.205 471.779,166.186 471.705,166.173C471.678,166.166 471.637,166.162 471.583,166.162C471.556,166.156 471.524,166.149 471.486,166.142C471.449,166.135 471.414,166.139 471.38,166.152C471.353,166.159 471.326,166.161 471.298,166.157C471.271,166.154 471.241,166.156 471.207,166.162C471.146,166.176 471.083,166.188 471.019,166.198C470.955,166.208 470.895,166.227 470.841,166.254C470.611,166.349 470.428,166.477 470.293,166.64C470.157,166.803 470.052,167.009 469.978,167.26C469.964,167.307 469.954,167.358 469.947,167.412C469.94,167.466 469.93,167.52 469.917,167.575C469.91,167.595 469.908,167.617 469.912,167.641C469.915,167.664 469.913,167.686 469.907,167.707C469.9,167.741 469.9,167.774 469.907,167.808C469.913,167.842 469.913,167.876 469.907,167.91L469.907,169.952C469.907,170.006 469.908,170.069 469.912,170.14C469.915,170.211 469.915,170.281 469.912,170.348C469.908,170.416 469.903,170.48 469.896,170.541C469.89,170.602 469.876,170.646 469.856,170.673C469.829,170.707 469.796,170.726 469.759,170.729C469.722,170.733 469.68,170.741 469.632,170.755L469.49,170.755C469.415,170.755 469.344,170.753 469.277,170.75C469.209,170.746 469.158,170.724 469.124,170.684C469.09,170.629 469.072,170.563 469.068,170.485C469.065,170.408 469.063,170.325 469.063,170.237L469.063,164.07C469.063,163.995 469.062,163.915 469.058,163.831C469.055,163.746 469.07,163.68 469.104,163.633C469.131,163.585 469.182,163.551 469.256,163.531C469.27,163.524 469.283,163.523 469.297,163.526C469.31,163.529 469.324,163.528 469.338,163.521Z" style="fill:rgb(51,51,51);fill-rule:nonzero;"/>
        <path d="M479.335,170.369C479.355,170.477 479.345,170.567 479.304,170.638C479.264,170.709 479.21,170.761 479.142,170.795C479.108,170.809 479.072,170.816 479.035,170.816C478.998,170.816 478.959,170.822 478.918,170.836C478.769,170.87 478.622,170.861 478.476,170.811C478.331,170.76 478.231,170.697 478.177,170.623C478.143,170.575 478.112,170.519 478.085,170.455C478.058,170.391 478.024,170.338 477.984,170.298C477.97,170.284 477.955,170.27 477.938,170.257C477.921,170.243 477.899,170.24 477.872,170.247C477.797,170.267 477.728,170.304 477.664,170.358C477.599,170.413 477.537,170.46 477.476,170.501C477.388,170.555 477.293,170.604 477.191,170.648C477.09,170.692 476.981,170.731 476.866,170.765C476.798,170.785 476.725,170.799 476.648,170.806C476.57,170.812 476.493,170.822 476.419,170.836C476.385,170.843 476.356,170.846 476.333,170.846L476.256,170.846C476.182,170.86 476.111,170.86 476.043,170.846L475.952,170.846C475.918,170.839 475.884,170.836 475.85,170.836C475.816,170.836 475.786,170.829 475.759,170.816C475.732,170.809 475.709,170.807 475.693,170.811C475.676,170.814 475.657,170.812 475.637,170.806C475.582,170.792 475.528,170.78 475.474,170.77C475.42,170.76 475.369,170.745 475.322,170.724C475.119,170.636 474.954,170.536 474.829,170.425C474.704,170.313 474.6,170.155 474.519,169.952C474.458,169.803 474.428,169.624 474.428,169.414L474.428,169.2C474.434,169.166 474.44,169.131 474.443,169.094C474.446,169.056 474.451,169.017 474.458,168.977C474.485,168.902 474.512,168.828 474.539,168.753C474.567,168.679 474.6,168.611 474.641,168.55C474.763,168.354 474.929,168.208 475.139,168.113C475.349,168.018 475.579,167.934 475.83,167.859C475.925,167.832 476.023,167.812 476.124,167.798C476.226,167.785 476.328,167.768 476.429,167.747C476.477,167.734 476.522,167.727 476.566,167.727C476.61,167.727 476.659,167.72 476.714,167.707C476.761,167.693 476.808,167.685 476.856,167.681C476.903,167.678 476.954,167.67 477.008,167.656C477.178,167.615 477.337,167.58 477.486,167.549C477.635,167.519 477.753,167.443 477.841,167.321C477.882,167.266 477.916,167.197 477.943,167.112C477.97,167.028 477.97,166.935 477.943,166.833C477.902,166.67 477.843,166.542 477.765,166.447C477.687,166.352 477.577,166.278 477.435,166.223C477.354,166.19 477.257,166.166 477.145,166.152C477.034,166.139 476.917,166.132 476.795,166.132C476.673,166.132 476.554,166.139 476.439,166.152C476.324,166.166 476.226,166.186 476.145,166.213C476.03,166.254 475.918,166.311 475.809,166.386C475.755,166.427 475.706,166.479 475.662,166.543C475.618,166.608 475.579,166.677 475.545,166.752C475.525,166.806 475.506,166.863 475.489,166.924C475.472,166.985 475.44,167.033 475.393,167.067C475.366,167.087 475.32,167.102 475.256,167.112C475.191,167.123 475.125,167.128 475.058,167.128C474.99,167.128 474.924,167.123 474.859,167.112C474.795,167.102 474.749,167.087 474.722,167.067C474.695,167.046 474.675,167.012 474.661,166.965C474.648,166.918 474.648,166.867 474.661,166.813C474.682,166.725 474.704,166.642 474.727,166.564C474.751,166.486 474.78,166.41 474.814,166.335C474.942,166.098 475.105,165.914 475.301,165.781C475.498,165.649 475.742,165.543 476.033,165.461C476.101,165.448 476.17,165.438 476.241,165.431C476.312,165.424 476.385,165.414 476.46,165.4C476.487,165.394 476.531,165.392 476.592,165.395C476.653,165.399 476.69,165.394 476.703,165.38C477.178,165.373 477.591,165.428 477.943,165.543C478.295,165.658 478.542,165.878 478.685,166.203C478.746,166.339 478.781,166.496 478.791,166.676C478.801,166.855 478.807,167.043 478.807,167.239L478.807,169.485C478.807,169.58 478.81,169.671 478.817,169.759C478.823,169.847 478.844,169.918 478.878,169.972C478.912,170.02 478.956,170.054 479.01,170.074C479.071,170.101 479.128,170.12 479.182,170.13C479.237,170.14 479.277,170.172 479.304,170.226C479.318,170.247 479.325,170.267 479.325,170.287C479.325,170.308 479.328,170.335 479.335,170.369ZM477.882,169.241C477.923,169.146 477.945,169.036 477.948,168.911C477.951,168.785 477.953,168.655 477.953,168.52C477.953,168.445 477.95,168.377 477.943,168.316C477.936,168.255 477.909,168.208 477.862,168.174C477.841,168.161 477.794,168.154 477.719,168.154C477.706,168.167 477.682,168.174 477.648,168.174C477.614,168.174 477.584,168.181 477.557,168.194C477.503,168.208 477.442,168.222 477.374,168.235C477.306,168.249 477.239,168.262 477.171,168.276C477.15,168.276 477.128,168.277 477.105,168.281C477.081,168.284 477.056,168.286 477.029,168.286C476.927,168.313 476.817,168.328 476.698,168.332C476.58,168.335 476.47,168.35 476.368,168.377C476.314,168.391 476.265,168.403 476.221,168.413C476.177,168.423 476.128,168.435 476.074,168.448C475.965,168.482 475.864,168.525 475.769,168.575C475.674,168.626 475.593,168.689 475.525,168.763C475.457,168.838 475.406,168.928 475.373,169.033C475.339,169.138 475.325,169.265 475.332,169.414C475.332,169.481 475.344,169.544 475.367,169.602C475.391,169.659 475.42,169.712 475.454,169.759C475.508,169.834 475.579,169.896 475.667,169.947C475.755,169.998 475.85,170.04 475.952,170.074C475.985,170.081 476.019,170.084 476.053,170.084C476.087,170.084 476.121,170.088 476.155,170.094C476.202,170.108 476.262,170.116 476.333,170.12C476.404,170.123 476.463,170.118 476.51,170.104C476.551,170.091 476.592,170.086 476.632,170.089C476.673,170.093 476.714,170.088 476.754,170.074C476.808,170.06 476.861,170.05 476.912,170.044C476.963,170.037 477.012,170.023 477.059,170.003C477.255,169.922 477.423,169.823 477.562,169.708C477.701,169.593 477.808,169.437 477.882,169.241Z" style="fill:rgb(51,51,51);fill-rule:nonzero;"/>
        <path d="M479.975,165.512L480.3,165.512C480.415,165.512 480.503,165.533 480.564,165.573C480.612,165.607 480.644,165.649 480.661,165.7C480.678,165.751 480.696,165.803 480.717,165.858C480.757,165.952 480.791,166.047 480.818,166.142C480.845,166.237 480.876,166.332 480.91,166.427C481.045,166.792 481.17,167.16 481.286,167.529C481.401,167.898 481.526,168.266 481.661,168.631C481.709,168.753 481.75,168.877 481.783,169.002C481.817,169.127 481.861,169.251 481.915,169.373C481.929,169.42 481.946,169.471 481.966,169.525C481.987,169.58 482.02,169.613 482.068,169.627C482.122,169.641 482.164,169.617 482.195,169.556C482.225,169.495 482.247,169.447 482.261,169.414C482.315,169.285 482.361,169.155 482.398,169.022C482.435,168.89 482.478,168.757 482.525,168.621C482.613,168.364 482.698,168.108 482.779,167.854C482.86,167.6 482.945,167.344 483.033,167.087C483.067,166.972 483.101,166.858 483.135,166.747C483.169,166.635 483.209,166.525 483.257,166.416C483.29,166.322 483.321,166.227 483.348,166.132C483.375,166.037 483.406,165.942 483.439,165.848C483.453,165.8 483.47,165.753 483.49,165.705C483.511,165.658 483.538,165.617 483.572,165.583C483.626,165.549 483.687,165.529 483.754,165.522C483.822,165.516 483.903,165.512 483.998,165.512C484.046,165.512 484.09,165.514 484.13,165.517C484.171,165.521 484.208,165.529 484.242,165.543C484.303,165.57 484.335,165.614 484.339,165.675C484.342,165.736 484.33,165.797 484.303,165.858C484.262,165.973 484.222,166.091 484.181,166.213C484.14,166.335 484.093,166.454 484.039,166.569C484.025,166.603 484.015,166.635 484.008,166.665C484.002,166.696 483.991,166.728 483.978,166.762C483.924,166.877 483.88,166.996 483.846,167.117C483.812,167.239 483.768,167.361 483.714,167.483C483.68,167.571 483.648,167.661 483.617,167.752C483.587,167.844 483.551,167.934 483.511,168.022C483.395,168.299 483.292,168.581 483.201,168.865C483.109,169.149 483.006,169.431 482.891,169.708C482.85,169.817 482.813,169.925 482.779,170.033C482.745,170.142 482.705,170.25 482.657,170.358C482.623,170.433 482.594,170.502 482.571,170.567C482.547,170.631 482.498,170.68 482.423,170.714C482.383,170.734 482.337,170.745 482.286,170.745L482.129,170.745C482.02,170.745 481.915,170.743 481.814,170.739C481.712,170.736 481.638,170.704 481.59,170.643C481.543,170.589 481.509,170.523 481.489,170.445C481.468,170.367 481.441,170.291 481.407,170.216C481.367,170.121 481.328,170.022 481.291,169.917C481.253,169.812 481.218,169.712 481.184,169.617C481.17,169.583 481.16,169.554 481.153,169.53C481.147,169.507 481.137,169.478 481.123,169.444C480.988,169.119 480.864,168.79 480.752,168.459C480.64,168.127 480.517,167.798 480.381,167.473C480.341,167.365 480.302,167.258 480.264,167.153C480.227,167.048 480.188,166.941 480.148,166.833C480.134,166.799 480.122,166.764 480.112,166.726C480.102,166.689 480.09,166.654 480.077,166.62C480.022,166.505 479.977,166.389 479.939,166.274C479.902,166.159 479.86,166.044 479.812,165.929C479.799,165.888 479.782,165.834 479.762,165.766C479.741,165.698 479.745,165.641 479.772,165.594C479.806,165.56 479.846,165.536 479.894,165.522C479.941,165.522 479.968,165.519 479.975,165.512Z" style="fill:rgb(51,51,51);fill-rule:nonzero;"/>
        <path d="M489.779,167.92C489.793,167.988 489.794,168.064 489.784,168.149C489.774,168.233 489.752,168.293 489.718,168.327C489.684,168.354 489.635,168.372 489.571,168.382C489.507,168.393 489.434,168.398 489.353,168.398C489.271,168.398 489.19,168.396 489.109,168.393C489.027,168.389 488.956,168.387 488.895,168.387L486.294,168.387C486.24,168.387 486.186,168.389 486.132,168.393C486.078,168.396 486.034,168.408 486,168.428C485.973,168.442 485.946,168.469 485.918,168.509C485.905,168.53 485.891,168.558 485.878,168.596C485.864,168.633 485.864,168.669 485.878,168.702C485.885,168.736 485.888,168.767 485.888,168.794C485.888,168.821 485.891,168.848 485.898,168.875C485.912,168.929 485.925,168.985 485.939,169.043C485.952,169.1 485.973,169.156 486,169.21C486.156,169.576 486.413,169.837 486.772,169.993C486.813,170.013 486.857,170.03 486.904,170.044C486.951,170.057 486.999,170.071 487.046,170.084C487.067,170.091 487.1,170.094 487.148,170.094C487.243,170.121 487.368,170.135 487.524,170.135C487.68,170.135 487.805,170.121 487.9,170.094C487.994,170.067 488.081,170.038 488.159,170.008C488.237,169.977 488.309,169.939 488.377,169.891C488.452,169.844 488.516,169.788 488.57,169.723C488.624,169.659 488.672,169.59 488.712,169.515C488.753,169.447 488.789,169.376 488.819,169.302C488.85,169.227 488.902,169.173 488.977,169.139C489.004,169.126 489.048,169.116 489.109,169.109C489.17,169.102 489.231,169.1 489.292,169.104C489.353,169.107 489.41,169.112 489.464,169.119C489.518,169.126 489.556,169.139 489.576,169.16C489.644,169.207 489.661,169.285 489.627,169.393C489.573,169.576 489.502,169.739 489.413,169.881C489.278,170.098 489.124,170.276 488.951,170.414C488.778,170.553 488.56,170.667 488.296,170.755C488.228,170.782 488.16,170.8 488.093,170.811C488.025,170.821 487.954,170.833 487.879,170.846C487.845,170.853 487.813,170.856 487.783,170.856C487.752,170.856 487.72,170.86 487.686,170.866L487.585,170.866C487.551,170.873 487.512,170.877 487.468,170.877C487.424,170.877 487.388,170.873 487.361,170.866L487.27,170.866C487.236,170.86 487.205,170.856 487.178,170.856C487.151,170.856 487.124,170.853 487.097,170.846C487.063,170.839 487.026,170.834 486.985,170.831C486.945,170.828 486.907,170.822 486.873,170.816C486.813,170.802 486.752,170.787 486.691,170.77C486.63,170.753 486.572,170.734 486.518,170.714C486.491,170.701 486.467,170.692 486.447,170.689C486.426,170.685 486.403,170.677 486.376,170.663C486.274,170.616 486.166,170.558 486.051,170.491C485.854,170.362 485.686,170.204 485.548,170.018C485.409,169.832 485.292,169.624 485.197,169.393C485.163,169.319 485.138,169.241 485.121,169.16C485.104,169.078 485.082,168.997 485.055,168.916C485.048,168.889 485.045,168.865 485.045,168.845C485.045,168.824 485.041,168.797 485.035,168.763C485.021,168.709 485.011,168.652 485.004,168.591C484.997,168.53 484.987,168.469 484.974,168.408L484.974,168.266C484.967,168.238 484.962,168.2 484.958,168.149C484.955,168.098 484.957,168.056 484.963,168.022L484.963,167.91C484.977,167.876 484.982,167.841 484.979,167.803C484.975,167.766 484.977,167.73 484.984,167.697C485.011,167.588 485.033,167.48 485.05,167.371C485.067,167.263 485.096,167.162 485.136,167.067C485.17,166.992 485.202,166.916 485.233,166.838C485.263,166.76 485.299,166.684 485.339,166.609C485.488,166.372 485.658,166.168 485.847,165.995C486.037,165.822 486.271,165.678 486.548,165.563C486.63,165.529 486.713,165.504 486.797,165.487C486.882,165.47 486.972,165.451 487.067,165.431C487.1,165.424 487.131,165.419 487.158,165.416C487.185,165.412 487.216,165.411 487.249,165.411C487.263,165.404 487.28,165.404 487.3,165.411C487.321,165.417 487.337,165.414 487.351,165.4C487.635,165.394 487.883,165.422 488.093,165.487C488.303,165.551 488.492,165.638 488.662,165.746C488.696,165.759 488.723,165.778 488.743,165.802C488.763,165.825 488.787,165.844 488.814,165.858C488.868,165.898 488.924,165.946 488.982,166C489.039,166.054 489.088,166.108 489.129,166.162C489.237,166.305 489.329,166.44 489.403,166.569C489.451,166.643 489.488,166.725 489.515,166.813C489.542,166.901 489.573,166.989 489.607,167.077C489.64,167.165 489.666,167.256 489.683,167.351C489.7,167.446 489.722,167.541 489.749,167.636C489.756,167.683 489.761,167.73 489.764,167.778C489.767,167.825 489.772,167.873 489.779,167.92ZM488.794,167.575C488.814,167.548 488.831,167.512 488.845,167.468C488.858,167.424 488.858,167.378 488.845,167.331C488.804,167.182 488.746,167.043 488.672,166.914C488.577,166.759 488.472,166.626 488.357,166.518C488.242,166.41 488.093,166.318 487.91,166.244C487.862,166.23 487.815,166.218 487.768,166.208C487.72,166.198 487.669,166.186 487.615,166.173C487.561,166.159 487.503,166.152 487.442,166.152L487.27,166.152C487.249,166.166 487.226,166.171 487.199,166.168C487.172,166.164 487.148,166.166 487.127,166.173C487.073,166.186 487.021,166.198 486.97,166.208C486.919,166.218 486.87,166.23 486.823,166.244C486.626,166.325 486.469,166.427 486.35,166.549C486.232,166.67 486.125,166.823 486.03,167.006C486.01,167.04 485.99,167.082 485.969,167.133C485.949,167.184 485.932,167.239 485.918,167.3C485.905,167.361 485.902,167.419 485.908,167.473C485.915,167.527 485.939,167.568 485.979,167.595C486.034,167.636 486.127,167.654 486.259,167.651C486.391,167.647 486.504,167.646 486.599,167.646L488.143,167.646C488.245,167.646 488.367,167.647 488.509,167.651C488.651,167.654 488.746,167.629 488.794,167.575Z" style="fill:rgb(51,51,51);fill-rule:nonzero;"/>
        <path d="M498.151,170.369C498.171,170.477 498.161,170.567 498.12,170.638C498.08,170.709 498.026,170.761 497.958,170.795C497.924,170.809 497.888,170.816 497.851,170.816C497.814,170.816 497.775,170.822 497.734,170.836C497.585,170.87 497.438,170.861 497.292,170.811C497.147,170.76 497.047,170.697 496.993,170.623C496.959,170.575 496.928,170.519 496.901,170.455C496.874,170.391 496.84,170.338 496.8,170.298C496.786,170.284 496.771,170.27 496.754,170.257C496.737,170.243 496.715,170.24 496.688,170.247C496.613,170.267 496.544,170.304 496.48,170.358C496.415,170.413 496.353,170.46 496.292,170.501C496.204,170.555 496.109,170.604 496.007,170.648C495.906,170.692 495.797,170.731 495.682,170.765C495.614,170.785 495.542,170.799 495.464,170.806C495.386,170.812 495.31,170.822 495.235,170.836C495.201,170.843 495.172,170.846 495.149,170.846L495.073,170.846C494.998,170.86 494.927,170.86 494.859,170.846L494.768,170.846C494.734,170.839 494.7,170.836 494.666,170.836C494.632,170.836 494.602,170.829 494.575,170.816C494.548,170.809 494.526,170.807 494.509,170.811C494.492,170.814 494.473,170.812 494.453,170.806C494.399,170.792 494.344,170.78 494.29,170.77C494.236,170.76 494.185,170.745 494.138,170.724C493.935,170.636 493.77,170.536 493.645,170.425C493.52,170.313 493.416,170.155 493.335,169.952C493.274,169.803 493.244,169.624 493.244,169.414L493.244,169.2C493.251,169.166 493.256,169.131 493.259,169.094C493.262,169.056 493.267,169.017 493.274,168.977C493.301,168.902 493.328,168.828 493.356,168.753C493.383,168.679 493.416,168.611 493.457,168.55C493.579,168.354 493.745,168.208 493.955,168.113C494.165,168.018 494.395,167.934 494.646,167.859C494.741,167.832 494.839,167.812 494.94,167.798C495.042,167.785 495.144,167.768 495.245,167.747C495.293,167.734 495.338,167.727 495.382,167.727C495.426,167.727 495.476,167.72 495.53,167.707C495.577,167.693 495.625,167.685 495.672,167.681C495.719,167.678 495.77,167.67 495.824,167.656C495.994,167.615 496.153,167.58 496.302,167.549C496.451,167.519 496.569,167.443 496.657,167.321C496.698,167.266 496.732,167.197 496.759,167.112C496.786,167.028 496.786,166.935 496.759,166.833C496.718,166.67 496.659,166.542 496.581,166.447C496.503,166.352 496.393,166.278 496.251,166.223C496.17,166.19 496.073,166.166 495.962,166.152C495.85,166.139 495.733,166.132 495.611,166.132C495.489,166.132 495.371,166.139 495.255,166.152C495.14,166.166 495.042,166.186 494.961,166.213C494.846,166.254 494.734,166.311 494.625,166.386C494.571,166.427 494.522,166.479 494.478,166.543C494.434,166.608 494.395,166.677 494.361,166.752C494.341,166.806 494.322,166.863 494.305,166.924C494.289,166.985 494.256,167.033 494.209,167.067C494.182,167.087 494.136,167.102 494.072,167.112C494.007,167.123 493.941,167.128 493.874,167.128C493.806,167.128 493.74,167.123 493.676,167.112C493.611,167.102 493.565,167.087 493.538,167.067C493.511,167.046 493.491,167.012 493.477,166.965C493.464,166.918 493.464,166.867 493.477,166.813C493.498,166.725 493.52,166.642 493.543,166.564C493.567,166.486 493.596,166.41 493.63,166.335C493.759,166.098 493.921,165.914 494.117,165.781C494.314,165.649 494.558,165.543 494.849,165.461C494.917,165.448 494.986,165.438 495.057,165.431C495.128,165.424 495.201,165.414 495.276,165.4C495.303,165.394 495.347,165.392 495.408,165.395C495.469,165.399 495.506,165.394 495.52,165.38C495.994,165.373 496.407,165.428 496.759,165.543C497.111,165.658 497.358,165.878 497.501,166.203C497.562,166.339 497.597,166.496 497.607,166.676C497.618,166.855 497.623,167.043 497.623,167.239L497.623,169.485C497.623,169.58 497.626,169.671 497.633,169.759C497.64,169.847 497.66,169.918 497.694,169.972C497.728,170.02 497.772,170.054 497.826,170.074C497.887,170.101 497.944,170.12 497.999,170.13C498.053,170.14 498.093,170.172 498.12,170.226C498.134,170.247 498.141,170.267 498.141,170.287C498.141,170.308 498.144,170.335 498.151,170.369ZM496.698,169.241C496.739,169.146 496.761,169.036 496.764,168.911C496.768,168.785 496.769,168.655 496.769,168.52C496.769,168.445 496.766,168.377 496.759,168.316C496.752,168.255 496.725,168.208 496.678,168.174C496.657,168.161 496.61,168.154 496.536,168.154C496.522,168.167 496.498,168.174 496.464,168.174C496.431,168.174 496.4,168.181 496.373,168.194C496.319,168.208 496.258,168.222 496.19,168.235C496.122,168.249 496.055,168.262 495.987,168.276C495.967,168.276 495.945,168.277 495.921,168.281C495.897,168.284 495.872,168.286 495.845,168.286C495.743,168.313 495.633,168.328 495.514,168.332C495.396,168.335 495.286,168.35 495.184,168.377C495.13,168.391 495.081,168.403 495.037,168.413C494.993,168.423 494.944,168.435 494.89,168.448C494.781,168.482 494.68,168.525 494.585,168.575C494.49,168.626 494.409,168.689 494.341,168.763C494.273,168.838 494.222,168.928 494.189,169.033C494.155,169.138 494.141,169.265 494.148,169.414C494.148,169.481 494.16,169.544 494.184,169.602C494.207,169.659 494.236,169.712 494.27,169.759C494.324,169.834 494.395,169.896 494.483,169.947C494.571,169.998 494.666,170.04 494.768,170.074C494.802,170.081 494.835,170.084 494.869,170.084C494.903,170.084 494.937,170.088 494.971,170.094C495.018,170.108 495.078,170.116 495.149,170.12C495.22,170.123 495.279,170.118 495.327,170.104C495.367,170.091 495.408,170.086 495.448,170.089C495.489,170.093 495.53,170.088 495.57,170.074C495.625,170.06 495.677,170.05 495.728,170.044C495.779,170.037 495.828,170.023 495.875,170.003C496.072,169.922 496.239,169.823 496.378,169.708C496.517,169.593 496.624,169.437 496.698,169.241Z" style="fill:rgb(51,51,51);fill-rule:nonzero;"/>
        <path d="M503.82,163.562C504.288,163.555 504.696,163.636 505.044,163.805C505.393,163.975 505.659,164.202 505.842,164.486C505.876,164.54 505.906,164.6 505.933,164.664C505.961,164.728 505.991,164.794 506.025,164.862C506.052,164.93 506.072,164.997 506.086,165.065C506.099,165.133 506.113,165.204 506.126,165.279C506.14,165.312 506.143,165.343 506.137,165.37C506.13,165.397 506.133,165.428 506.147,165.461C506.154,165.495 506.157,165.551 506.157,165.629C506.157,165.707 506.154,165.766 506.147,165.807C506.133,165.848 506.128,165.888 506.132,165.929C506.135,165.969 506.13,166.01 506.116,166.051C506.089,166.146 506.066,166.237 506.045,166.325C506.025,166.413 505.998,166.498 505.964,166.579C505.923,166.674 505.878,166.759 505.827,166.833C505.776,166.908 505.723,166.982 505.669,167.057C505.656,167.07 505.644,167.084 505.634,167.097C505.624,167.111 505.612,167.124 505.598,167.138C505.517,167.246 505.425,167.344 505.324,167.432C505.222,167.52 505.114,167.605 504.999,167.686C504.789,167.835 504.589,167.974 504.399,168.103C504.244,168.198 504.089,168.289 503.937,168.377C503.785,168.465 503.634,168.557 503.485,168.652C503.316,168.767 503.155,168.889 503.002,169.017C502.85,169.146 502.72,169.298 502.611,169.475C502.584,169.515 502.56,169.554 502.54,169.591C502.52,169.629 502.499,169.674 502.479,169.729C502.466,169.776 502.462,169.817 502.469,169.85C502.482,169.898 502.506,169.935 502.54,169.962C502.574,169.983 502.616,169.994 502.667,169.998C502.718,170.001 502.77,170.003 502.825,170.003L505.679,170.003C505.74,170.003 505.798,170.005 505.852,170.008C505.906,170.011 505.95,170.027 505.984,170.054C506.018,170.081 506.047,170.13 506.071,170.201C506.094,170.272 506.099,170.342 506.086,170.409L506.086,170.501C506.072,170.548 506.059,170.589 506.045,170.623C506.032,170.657 506.008,170.684 505.974,170.704C505.94,170.731 505.893,170.745 505.832,170.745L501.941,170.745C501.886,170.745 501.825,170.746 501.758,170.75C501.69,170.753 501.632,170.748 501.585,170.734C501.443,170.687 501.399,170.565 501.453,170.369C501.46,170.342 501.461,170.316 501.458,170.292C501.455,170.269 501.46,170.24 501.473,170.206C501.487,170.152 501.5,170.094 501.514,170.033C501.527,169.972 501.544,169.915 501.565,169.861C501.673,169.529 501.809,169.248 501.971,169.017C502.093,168.848 502.232,168.694 502.388,168.555C502.543,168.416 502.708,168.286 502.88,168.164C503.053,168.042 503.233,167.925 503.419,167.813C503.605,167.702 503.786,167.585 503.962,167.463C504.037,167.409 504.11,167.358 504.181,167.311C504.252,167.263 504.325,167.212 504.399,167.158C504.426,167.138 504.452,167.116 504.475,167.092C504.499,167.068 504.525,167.05 504.552,167.036C504.647,166.962 504.731,166.877 504.806,166.782C504.819,166.762 504.836,166.743 504.856,166.726C504.877,166.709 504.894,166.691 504.907,166.67C504.961,166.603 505.007,166.535 505.044,166.467C505.082,166.4 505.117,166.325 505.151,166.244C505.171,166.196 505.187,166.146 505.197,166.091C505.207,166.037 505.219,165.983 505.232,165.929C505.232,165.908 505.234,165.888 505.237,165.868C505.241,165.848 505.243,165.827 505.243,165.807C505.256,165.759 505.261,165.693 505.258,165.609C505.254,165.524 505.246,165.458 505.232,165.411C505.219,165.356 505.207,165.304 505.197,165.253C505.187,165.202 505.171,165.15 505.151,165.096C505.077,164.933 504.977,164.796 504.851,164.684C504.726,164.572 504.575,164.479 504.399,164.405C504.352,164.391 504.304,164.379 504.257,164.369C504.21,164.359 504.159,164.347 504.105,164.334C504.05,164.32 503.978,164.313 503.886,164.313C503.795,164.313 503.722,164.32 503.668,164.334C503.627,164.34 503.59,164.344 503.556,164.344C503.522,164.344 503.488,164.351 503.454,164.364C503.387,164.391 503.324,164.418 503.266,164.445C503.209,164.473 503.153,164.503 503.099,164.537C503.079,164.55 503.06,164.567 503.043,164.588C503.026,164.608 503.007,164.625 502.987,164.638C502.974,164.652 502.957,164.667 502.936,164.684C502.916,164.701 502.899,164.716 502.885,164.73C502.852,164.777 502.819,164.823 502.789,164.867C502.758,164.911 502.726,164.957 502.692,165.004C502.652,165.065 502.62,165.135 502.596,165.213C502.572,165.29 502.547,165.367 502.52,165.441C502.493,165.516 502.476,165.612 502.469,165.731C502.462,165.849 502.442,165.936 502.408,165.99C502.374,166.044 502.323,166.074 502.256,166.081C502.188,166.088 502.113,166.091 502.032,166.091C502.005,166.091 501.978,166.093 501.951,166.096C501.924,166.1 501.9,166.098 501.88,166.091C501.846,166.078 501.814,166.071 501.783,166.071C501.753,166.071 501.724,166.064 501.697,166.051C501.636,166.01 501.605,165.919 501.605,165.776L501.605,165.695C501.612,165.654 501.617,165.612 501.621,165.568C501.624,165.524 501.629,165.482 501.636,165.441C501.649,165.367 501.663,165.297 501.676,165.233C501.69,165.168 501.71,165.106 501.737,165.045C501.751,164.997 501.764,164.955 501.778,164.918C501.792,164.881 501.805,164.842 501.819,164.801C501.9,164.625 502.007,164.459 502.139,164.303C502.271,164.147 502.415,164.022 502.571,163.927C502.645,163.873 502.725,163.829 502.809,163.795C502.894,163.761 502.98,163.727 503.068,163.694C503.143,163.66 503.221,163.638 503.302,163.628C503.383,163.617 503.468,163.602 503.556,163.582C503.603,163.582 503.647,163.58 503.688,163.577C503.729,163.573 503.773,163.568 503.82,163.562Z" style="fill:rgb(51,51,51);fill-rule:nonzero;"/>
        <path d="M513.543,166.955C513.543,167.009 513.545,167.068 513.548,167.133C513.552,167.197 513.547,167.253 513.533,167.3L513.533,167.402C513.526,167.422 513.525,167.446 513.528,167.473C513.531,167.5 513.53,167.52 513.523,167.534C513.516,167.568 513.513,167.603 513.513,167.641C513.513,167.678 513.509,167.714 513.503,167.747C513.482,167.842 513.469,167.942 513.462,168.047C513.455,168.152 513.435,168.252 513.401,168.347C513.381,168.428 513.359,168.511 513.335,168.596C513.311,168.68 513.282,168.763 513.249,168.845C513.133,169.136 512.989,169.398 512.817,169.632C512.644,169.866 512.429,170.064 512.172,170.226C512.043,170.308 511.906,170.377 511.76,170.435C511.614,170.492 511.457,170.548 511.288,170.602C511.213,170.629 511.134,170.648 511.049,170.658C510.964,170.668 510.881,170.684 510.8,170.704C510.726,170.717 510.653,170.724 510.582,170.724C510.51,170.724 510.441,170.731 510.373,170.745L510.231,170.745C510.211,170.751 510.187,170.753 510.16,170.75C510.133,170.746 510.106,170.745 510.079,170.745L508.047,170.745C507.945,170.745 507.855,170.739 507.777,170.729C507.7,170.719 507.647,170.677 507.62,170.602C507.593,170.548 507.581,170.47 507.584,170.369C507.588,170.267 507.589,170.176 507.589,170.094L507.589,164.09C507.589,164.009 507.588,163.922 507.584,163.831C507.581,163.739 507.596,163.667 507.63,163.612C507.657,163.565 507.708,163.534 507.783,163.521C507.796,163.514 507.81,163.512 507.823,163.516C507.837,163.519 507.85,163.518 507.864,163.511L510.068,163.511C510.102,163.511 510.135,163.509 510.165,163.506C510.195,163.502 510.224,163.504 510.251,163.511C510.285,163.524 510.321,163.528 510.358,163.521C510.395,163.514 510.431,163.514 510.465,163.521C510.499,163.528 510.536,163.531 510.576,163.531C510.617,163.531 510.654,163.534 510.688,163.541C510.722,163.548 510.754,163.551 510.785,163.551C510.815,163.551 510.847,163.555 510.881,163.562C510.956,163.575 511.027,163.587 511.095,163.597C511.162,163.607 511.23,163.622 511.298,163.643C511.447,163.69 511.589,163.736 511.725,163.78C511.86,163.824 511.985,163.883 512.1,163.958C512.195,164.012 512.28,164.066 512.354,164.12C512.375,164.134 512.395,164.149 512.415,164.166C512.436,164.183 512.456,164.198 512.476,164.212C512.517,164.246 512.554,164.279 512.588,164.313C512.622,164.347 512.656,164.381 512.69,164.415C512.724,164.449 512.751,164.473 512.771,164.486C512.798,164.527 512.827,164.564 512.857,164.598C512.888,164.632 512.917,164.669 512.944,164.71C512.978,164.75 513.006,164.793 513.03,164.837C513.054,164.881 513.083,164.926 513.116,164.974C513.13,165.001 513.14,165.025 513.147,165.045C513.154,165.065 513.164,165.089 513.177,165.116C513.205,165.17 513.228,165.223 513.249,165.273C513.269,165.324 513.293,165.377 513.32,165.431C513.347,165.505 513.369,165.582 513.386,165.66C513.403,165.737 513.421,165.814 513.442,165.888C513.455,165.929 513.462,165.968 513.462,166.005C513.462,166.042 513.469,166.081 513.482,166.122C513.516,166.244 513.535,166.378 513.538,166.523C513.541,166.669 513.543,166.813 513.543,166.955ZM512.578,167.483C512.592,167.416 512.598,167.343 512.598,167.265L512.598,167.036C512.598,166.982 512.6,166.93 512.603,166.879C512.607,166.828 512.602,166.779 512.588,166.731C512.588,166.711 512.586,166.691 512.583,166.67C512.58,166.65 512.578,166.626 512.578,166.599C512.564,166.525 512.556,166.45 512.553,166.376C512.549,166.301 512.537,166.227 512.517,166.152C512.503,166.098 512.492,166.046 512.481,165.995C512.471,165.944 512.459,165.892 512.446,165.837C512.371,165.594 512.277,165.38 512.161,165.197C511.972,164.892 511.691,164.662 511.318,164.506C511.257,164.473 511.193,164.447 511.125,164.43C511.057,164.413 510.986,164.395 510.912,164.374C510.837,164.354 510.761,164.342 510.683,164.339C510.605,164.335 510.529,164.327 510.455,164.313L510.241,164.313C510.221,164.307 510.197,164.303 510.17,164.303L508.849,164.303C508.836,164.31 508.819,164.312 508.799,164.308C508.778,164.305 508.761,164.307 508.748,164.313C508.714,164.327 508.682,164.34 508.651,164.354C508.621,164.368 508.599,164.388 508.585,164.415C508.572,164.442 508.558,164.489 508.545,164.557L508.545,164.638C508.538,164.666 508.534,164.696 508.534,164.73L508.534,169.53C508.534,169.561 508.538,169.59 508.545,169.617L508.545,169.698C508.558,169.766 508.572,169.813 508.585,169.84C508.639,169.922 508.741,169.961 508.89,169.957C509.039,169.954 509.181,169.952 509.317,169.952L509.906,169.952C509.953,169.952 510.004,169.954 510.058,169.957C510.113,169.961 510.16,169.955 510.201,169.942L510.312,169.942C510.346,169.935 510.383,169.933 510.424,169.937C510.465,169.94 510.505,169.939 510.546,169.932C510.587,169.918 510.627,169.91 510.668,169.906C510.709,169.903 510.753,169.895 510.8,169.881C510.875,169.861 510.947,169.84 511.018,169.82C511.09,169.8 511.162,169.773 511.237,169.739C511.487,169.63 511.703,169.483 511.882,169.297C512.062,169.111 512.209,168.889 512.324,168.631C512.358,168.557 512.387,168.477 512.41,168.393C512.434,168.308 512.459,168.222 512.487,168.133C512.507,168.059 512.522,167.979 512.532,167.895C512.542,167.81 512.554,167.727 512.568,167.646C512.575,167.612 512.578,167.583 512.578,167.559L512.578,167.483Z" style="fill:rgb(51,51,51);fill-rule:nonzero;"/>
        <path d="M519.04,165.39C519.527,165.384 519.937,165.439 520.269,165.558C520.601,165.676 520.858,165.885 521.041,166.183C521.089,166.257 521.126,166.333 521.153,166.411C521.18,166.489 521.207,166.576 521.234,166.67C521.248,166.718 521.251,166.767 521.244,166.818C521.238,166.869 521.227,166.908 521.214,166.935C521.2,166.948 521.183,166.96 521.163,166.97C521.143,166.98 521.126,166.992 521.112,167.006C521.078,167.019 521.045,167.023 521.011,167.016C520.977,167.009 520.943,167.009 520.909,167.016C520.855,167.029 520.784,167.031 520.696,167.021C520.608,167.011 520.547,166.996 520.513,166.975C520.459,166.941 520.423,166.896 520.406,166.838C520.389,166.781 520.364,166.725 520.33,166.67C520.269,166.562 520.184,166.464 520.076,166.376C520.001,166.322 519.92,166.281 519.832,166.254C519.744,166.227 519.649,166.2 519.548,166.173C519.514,166.159 519.48,166.154 519.446,166.157C519.412,166.161 519.378,166.159 519.344,166.152C519.304,166.139 519.253,166.132 519.192,166.132C519.131,166.132 519.08,166.139 519.04,166.152L518.979,166.152C518.945,166.159 518.911,166.164 518.877,166.168C518.843,166.171 518.809,166.176 518.776,166.183C518.599,166.223 518.454,166.281 518.339,166.355C518.223,166.43 518.146,166.555 518.105,166.731C518.091,166.779 518.09,166.826 518.1,166.874C518.11,166.921 518.122,166.962 518.135,166.996C518.176,167.097 518.225,167.17 518.283,167.214C518.34,167.258 518.413,167.307 518.501,167.361C518.61,167.429 518.731,167.478 518.867,167.509C519.002,167.539 519.138,167.575 519.273,167.615C519.361,167.642 519.449,167.663 519.538,167.676C519.626,167.69 519.714,167.71 519.802,167.737C519.944,167.778 520.083,167.817 520.218,167.854C520.354,167.891 520.489,167.937 520.625,167.991C520.658,168.005 520.692,168.018 520.726,168.032C520.76,168.045 520.794,168.062 520.828,168.083C520.963,168.164 521.082,168.255 521.183,168.357C521.285,168.459 521.37,168.587 521.437,168.743C521.451,168.79 521.464,168.855 521.478,168.936C521.492,168.984 521.5,169.033 521.503,169.083C521.507,169.134 521.509,169.19 521.509,169.251L521.509,169.353C521.495,169.4 521.488,169.447 521.488,169.495C521.488,169.542 521.481,169.59 521.468,169.637C521.448,169.712 521.424,169.783 521.397,169.85C521.37,169.918 521.339,169.979 521.305,170.033C521.197,170.209 521.058,170.35 520.889,170.455C520.719,170.56 520.53,170.65 520.32,170.724C520.259,170.745 520.196,170.76 520.132,170.77C520.068,170.78 520.005,170.795 519.944,170.816C519.876,170.829 519.808,170.836 519.741,170.836C519.673,170.836 519.605,170.843 519.538,170.856L519.436,170.856C519.402,170.863 519.355,170.866 519.294,170.866C519.233,170.866 519.185,170.863 519.151,170.856L519.04,170.856C518.999,170.843 518.955,170.838 518.908,170.841C518.86,170.844 518.82,170.839 518.786,170.826C518.752,170.819 518.708,170.816 518.654,170.816C518.599,170.802 518.547,170.79 518.496,170.78C518.445,170.77 518.393,170.755 518.339,170.734C518.129,170.667 517.946,170.582 517.79,170.48C517.634,170.379 517.499,170.247 517.384,170.084C517.323,169.996 517.272,169.905 517.231,169.81C517.191,169.715 517.153,169.61 517.119,169.495C517.106,169.454 517.101,169.405 517.104,169.348C517.108,169.29 517.116,169.244 517.13,169.21C517.15,169.183 517.184,169.156 517.231,169.129C517.265,169.116 517.312,169.107 517.373,169.104C517.434,169.1 517.495,169.102 517.556,169.109C517.617,169.116 517.677,169.124 517.734,169.134C517.792,169.144 517.831,169.156 517.851,169.17C517.898,169.204 517.931,169.253 517.947,169.317C517.964,169.381 517.986,169.441 518.014,169.495C518.081,169.644 518.173,169.759 518.288,169.84C518.369,169.901 518.461,169.949 518.562,169.983C518.664,170.016 518.772,170.05 518.887,170.084L519.101,170.115L519.162,170.115C519.209,170.128 519.272,170.135 519.35,170.135C519.427,170.135 519.493,170.128 519.548,170.115C519.595,170.115 519.632,170.111 519.659,170.104C519.7,170.098 519.741,170.093 519.781,170.089C519.822,170.086 519.859,170.081 519.893,170.074C520.09,170.02 520.245,169.949 520.36,169.861C520.476,169.773 520.557,169.624 520.604,169.414C520.618,169.38 520.621,169.342 520.614,169.302C520.608,169.261 520.601,169.231 520.594,169.21C520.56,169.082 520.513,168.985 520.452,168.921C520.391,168.857 520.313,168.797 520.218,168.743C520.157,168.702 520.09,168.669 520.015,168.641C519.941,168.614 519.866,168.587 519.792,168.56C519.771,168.553 519.753,168.55 519.736,168.55C519.719,168.55 519.7,168.543 519.68,168.53C519.449,168.455 519.211,168.399 518.963,168.362C518.716,168.325 518.484,168.262 518.268,168.174C518.2,168.147 518.135,168.123 518.074,168.103C518.014,168.083 517.956,168.056 517.902,168.022C517.773,167.947 517.655,167.863 517.546,167.768C517.438,167.673 517.353,167.554 517.292,167.412C517.272,167.365 517.257,167.317 517.246,167.27C517.236,167.222 517.224,167.172 517.211,167.117C517.191,167.036 517.184,166.943 517.191,166.838C517.197,166.733 517.208,166.643 517.221,166.569C517.235,166.535 517.243,166.506 517.246,166.482C517.25,166.459 517.258,166.433 517.272,166.406C517.333,166.251 517.416,166.115 517.521,166C517.626,165.885 517.746,165.783 517.881,165.695C517.983,165.634 518.095,165.585 518.217,165.548C518.339,165.511 518.467,165.475 518.603,165.441C518.65,165.434 518.696,165.428 518.74,165.421C518.784,165.414 518.833,165.407 518.887,165.4C518.908,165.394 518.935,165.394 518.969,165.4C519.002,165.407 519.026,165.404 519.04,165.39Z" style="fill:rgb(51,51,51);fill-rule:nonzero;"/>
        <path d="M527.046,167.92C527.059,167.988 527.061,168.064 527.051,168.149C527.041,168.233 527.019,168.293 526.985,168.327C526.951,168.354 526.902,168.372 526.837,168.382C526.773,168.393 526.7,168.398 526.619,168.398C526.538,168.398 526.456,168.396 526.375,168.393C526.294,168.389 526.223,168.387 526.162,168.387L523.561,168.387C523.507,168.387 523.452,168.389 523.398,168.393C523.344,168.396 523.3,168.408 523.266,168.428C523.239,168.442 523.212,168.469 523.185,168.509C523.171,168.53 523.158,168.558 523.144,168.596C523.131,168.633 523.131,168.669 523.144,168.702C523.151,168.736 523.154,168.767 523.154,168.794C523.154,168.821 523.158,168.848 523.165,168.875C523.178,168.929 523.192,168.985 523.205,169.043C523.219,169.1 523.239,169.156 523.266,169.21C523.422,169.576 523.679,169.837 524.038,169.993C524.079,170.013 524.123,170.03 524.17,170.044C524.218,170.057 524.265,170.071 524.313,170.084C524.333,170.091 524.367,170.094 524.414,170.094C524.509,170.121 524.634,170.135 524.79,170.135C524.946,170.135 525.071,170.121 525.166,170.094C525.261,170.067 525.347,170.038 525.425,170.008C525.503,169.977 525.576,169.939 525.644,169.891C525.718,169.844 525.782,169.788 525.837,169.723C525.891,169.659 525.938,169.59 525.979,169.515C526.02,169.447 526.055,169.376 526.086,169.302C526.116,169.227 526.169,169.173 526.243,169.139C526.27,169.126 526.314,169.116 526.375,169.109C526.436,169.102 526.497,169.1 526.558,169.104C526.619,169.107 526.677,169.112 526.731,169.119C526.785,169.126 526.822,169.139 526.842,169.16C526.91,169.207 526.927,169.285 526.893,169.393C526.839,169.576 526.768,169.739 526.68,169.881C526.544,170.098 526.39,170.276 526.218,170.414C526.045,170.553 525.826,170.667 525.562,170.755C525.495,170.782 525.427,170.8 525.359,170.811C525.291,170.821 525.22,170.833 525.146,170.846C525.112,170.853 525.08,170.856 525.049,170.856C525.019,170.856 524.987,170.86 524.953,170.866L524.851,170.866C524.817,170.873 524.778,170.877 524.734,170.877C524.69,170.877 524.655,170.873 524.628,170.866L524.536,170.866C524.502,170.86 524.472,170.856 524.445,170.856C524.418,170.856 524.391,170.853 524.363,170.846C524.33,170.839 524.292,170.834 524.252,170.831C524.211,170.828 524.174,170.822 524.14,170.816C524.079,170.802 524.018,170.787 523.957,170.77C523.896,170.753 523.839,170.734 523.784,170.714C523.757,170.701 523.734,170.692 523.713,170.689C523.693,170.685 523.669,170.677 523.642,170.663C523.54,170.616 523.432,170.558 523.317,170.491C523.121,170.362 522.953,170.204 522.814,170.018C522.675,169.832 522.558,169.624 522.464,169.393C522.43,169.319 522.404,169.241 522.387,169.16C522.37,169.078 522.348,168.997 522.321,168.916C522.315,168.889 522.311,168.865 522.311,168.845C522.311,168.824 522.308,168.797 522.301,168.763C522.287,168.709 522.277,168.652 522.271,168.591C522.264,168.53 522.254,168.469 522.24,168.408L522.24,168.266C522.233,168.238 522.228,168.2 522.225,168.149C522.221,168.098 522.223,168.056 522.23,168.022L522.23,167.91C522.243,167.876 522.248,167.841 522.245,167.803C522.242,167.766 522.243,167.73 522.25,167.697C522.277,167.588 522.299,167.48 522.316,167.371C522.333,167.263 522.362,167.162 522.403,167.067C522.436,166.992 522.469,166.916 522.499,166.838C522.53,166.76 522.565,166.684 522.606,166.609C522.755,166.372 522.924,166.168 523.114,165.995C523.303,165.822 523.537,165.678 523.815,165.563C523.896,165.529 523.979,165.504 524.064,165.487C524.148,165.47 524.238,165.451 524.333,165.431C524.367,165.424 524.397,165.419 524.424,165.416C524.451,165.412 524.482,165.411 524.516,165.411C524.529,165.404 524.546,165.404 524.567,165.411C524.587,165.417 524.604,165.414 524.617,165.4C524.902,165.394 525.149,165.422 525.359,165.487C525.569,165.551 525.759,165.638 525.928,165.746C525.962,165.759 525.989,165.778 526.009,165.802C526.03,165.825 526.053,165.844 526.08,165.858C526.135,165.898 526.191,165.946 526.248,166C526.306,166.054 526.355,166.108 526.395,166.162C526.504,166.305 526.595,166.44 526.67,166.569C526.717,166.643 526.754,166.725 526.781,166.813C526.809,166.901 526.839,166.989 526.873,167.077C526.907,167.165 526.932,167.256 526.949,167.351C526.966,167.446 526.988,167.541 527.015,167.636C527.022,167.683 527.027,167.73 527.03,167.778C527.034,167.825 527.039,167.873 527.046,167.92ZM526.06,167.575C526.08,167.548 526.097,167.512 526.111,167.468C526.124,167.424 526.124,167.378 526.111,167.331C526.07,167.182 526.013,167.043 525.938,166.914C525.843,166.759 525.738,166.626 525.623,166.518C525.508,166.41 525.359,166.318 525.176,166.244C525.129,166.23 525.081,166.218 525.034,166.208C524.987,166.198 524.936,166.186 524.882,166.173C524.827,166.159 524.77,166.152 524.709,166.152L524.536,166.152C524.516,166.166 524.492,166.171 524.465,166.168C524.438,166.164 524.414,166.166 524.394,166.173C524.34,166.186 524.287,166.198 524.236,166.208C524.186,166.218 524.137,166.23 524.089,166.244C523.893,166.325 523.735,166.427 523.617,166.549C523.498,166.67 523.391,166.823 523.297,167.006C523.276,167.04 523.256,167.082 523.236,167.133C523.215,167.184 523.198,167.239 523.185,167.3C523.171,167.361 523.168,167.419 523.175,167.473C523.182,167.527 523.205,167.568 523.246,167.595C523.3,167.636 523.393,167.654 523.525,167.651C523.657,167.647 523.771,167.646 523.866,167.646L525.41,167.646C525.512,167.646 525.633,167.647 525.776,167.651C525.918,167.654 526.013,167.629 526.06,167.575Z" style="fill:rgb(51,51,51);fill-rule:nonzero;"/>
        <path d="M530.053,165.39C530.554,165.384 530.972,165.456 531.308,165.609C531.643,165.761 531.909,165.99 532.105,166.295C532.193,166.43 532.268,166.596 532.329,166.792C532.342,166.826 532.352,166.87 532.359,166.924C532.366,166.979 532.363,167.026 532.349,167.067C532.329,167.101 532.295,167.131 532.248,167.158C532.227,167.172 532.207,167.177 532.187,167.173C532.166,167.17 532.143,167.172 532.115,167.178C532.088,167.185 532.061,167.187 532.034,167.184C532.007,167.18 531.98,167.178 531.953,167.178C531.878,167.178 531.807,167.177 531.74,167.173C531.672,167.17 531.614,167.151 531.567,167.117C531.513,167.077 531.475,167.019 531.455,166.945C531.435,166.87 531.408,166.806 531.374,166.752C531.272,166.576 531.14,166.437 530.978,166.335C530.923,166.301 530.866,166.273 530.805,166.249C530.744,166.225 530.68,166.203 530.612,166.183C530.517,166.156 530.392,166.14 530.236,166.137C530.08,166.134 529.951,166.149 529.85,166.183C529.802,166.196 529.758,166.206 529.718,166.213C529.677,166.22 529.633,166.23 529.586,166.244C529.41,166.318 529.254,166.42 529.118,166.549C528.983,166.677 528.878,166.83 528.803,167.006C528.776,167.067 528.753,167.129 528.732,167.194C528.712,167.258 528.692,167.327 528.671,167.402L528.61,167.676C528.604,167.71 528.602,167.747 528.605,167.788C528.609,167.829 528.604,167.866 528.59,167.9L528.59,167.981C528.583,168.008 528.578,168.052 528.575,168.113C528.571,168.174 528.576,168.218 528.59,168.245C528.597,168.279 528.597,168.313 528.59,168.347C528.583,168.381 528.583,168.415 528.59,168.448C528.597,168.476 528.6,168.523 528.6,168.591C528.614,168.645 528.626,168.702 528.636,168.763C528.646,168.824 528.658,168.882 528.671,168.936C528.746,169.153 528.832,169.341 528.93,169.5C529.029,169.659 529.166,169.796 529.342,169.911C529.403,169.945 529.465,169.976 529.53,170.003C529.594,170.03 529.664,170.057 529.738,170.084C529.772,170.091 529.799,170.094 529.819,170.094C529.84,170.094 529.867,170.098 529.901,170.104C529.921,170.111 529.955,170.115 530.002,170.115L530.114,170.115C530.114,170.121 530.127,170.125 530.155,170.125C530.168,170.118 530.185,170.116 530.205,170.12C530.226,170.123 530.246,170.121 530.266,170.115C530.314,170.101 530.359,170.096 530.403,170.099C530.448,170.103 530.493,170.098 530.541,170.084C530.717,170.03 530.869,169.961 530.998,169.876C531.127,169.791 531.235,169.681 531.323,169.546C531.357,169.492 531.387,169.434 531.414,169.373C531.441,169.312 531.469,169.251 531.496,169.19C531.509,169.136 531.524,169.083 531.541,169.033C531.558,168.982 531.591,168.939 531.638,168.906C531.658,168.885 531.699,168.87 531.76,168.86C531.821,168.85 531.887,168.843 531.958,168.84C532.029,168.836 532.097,168.838 532.161,168.845C532.225,168.851 532.271,168.865 532.298,168.885C532.339,168.912 532.364,168.953 532.375,169.007C532.385,169.061 532.383,169.119 532.369,169.18C532.336,169.282 532.303,169.378 532.273,169.469C532.242,169.561 532.203,169.651 532.156,169.739C532.054,169.942 531.927,170.121 531.775,170.277C531.623,170.433 531.438,170.558 531.221,170.653C531.167,170.68 531.11,170.702 531.049,170.719C530.988,170.736 530.923,170.755 530.856,170.775C530.781,170.802 530.707,170.817 530.632,170.821C530.558,170.824 530.483,170.833 530.409,170.846C530.381,170.86 530.354,170.863 530.327,170.856C530.3,170.85 530.273,170.85 530.246,170.856L530.155,170.856C530.1,170.856 530.048,170.858 529.997,170.861C529.946,170.865 529.901,170.86 529.86,170.846L529.809,170.846L529.565,170.816C529.477,170.789 529.393,170.765 529.311,170.745C529.23,170.724 529.152,170.697 529.078,170.663C528.834,170.555 528.632,170.426 528.473,170.277C528.314,170.128 528.167,169.945 528.031,169.729C527.997,169.674 527.967,169.613 527.94,169.546C527.913,169.478 527.886,169.41 527.858,169.342C527.825,169.268 527.801,169.19 527.787,169.109C527.774,169.028 527.757,168.946 527.737,168.865C527.73,168.838 527.726,168.811 527.726,168.784C527.726,168.757 527.723,168.73 527.716,168.702C527.703,168.662 527.698,168.618 527.701,168.57C527.704,168.523 527.699,168.479 527.686,168.438L527.686,168.337C527.679,168.303 527.676,168.255 527.676,168.194C527.676,168.133 527.679,168.086 527.686,168.052C527.692,168.018 527.694,167.988 527.691,167.961C527.687,167.934 527.689,167.907 527.696,167.879C527.709,167.832 527.715,167.785 527.711,167.737C527.708,167.69 527.713,167.646 527.726,167.605C527.753,167.49 527.777,167.375 527.797,167.26C527.818,167.145 527.848,167.036 527.889,166.935C528.031,166.582 528.204,166.298 528.407,166.081C528.61,165.864 528.888,165.685 529.24,165.543C529.315,165.509 529.396,165.485 529.484,165.472C529.572,165.458 529.664,165.441 529.758,165.421C529.806,165.414 529.853,165.409 529.901,165.406C529.948,165.402 529.999,165.397 530.053,165.39Z" style="fill:rgb(51,51,51);fill-rule:nonzero;"/>
        <path d="M534.025,163.927C534.127,163.927 534.229,163.929 534.33,163.932C534.432,163.936 534.503,163.965 534.544,164.019C534.578,164.059 534.596,164.115 534.6,164.186C534.603,164.257 534.605,164.33 534.605,164.405L534.605,164.994C534.605,165.048 534.603,165.104 534.6,165.162C534.596,165.219 534.601,165.268 534.615,165.309C534.642,165.404 534.703,165.465 534.798,165.492C534.832,165.499 534.864,165.502 534.894,165.502L534.991,165.502C535.065,165.502 535.157,165.5 535.265,165.497C535.373,165.494 535.451,165.502 535.499,165.522C535.56,165.563 535.6,165.604 535.621,165.644C535.634,165.671 535.641,165.702 535.641,165.736L535.641,165.837C535.641,165.912 535.638,165.981 535.631,166.046C535.624,166.11 535.6,166.159 535.56,166.193C535.519,166.227 535.463,166.245 535.392,166.249C535.321,166.252 535.246,166.252 535.168,166.249C535.091,166.245 535.014,166.244 534.94,166.244C534.865,166.244 534.801,166.254 534.747,166.274C534.699,166.295 534.666,166.328 534.645,166.376C534.625,166.423 534.611,166.479 534.605,166.543C534.598,166.608 534.596,166.676 534.6,166.747C534.603,166.818 534.605,166.887 534.605,166.955L534.605,168.967C534.605,169.116 534.603,169.273 534.6,169.439C534.596,169.605 534.625,169.732 534.686,169.82C534.72,169.874 534.764,169.911 534.818,169.932C534.872,169.952 534.936,169.969 535.011,169.983C535.031,169.989 535.053,169.991 535.077,169.988C535.101,169.984 535.123,169.986 535.143,169.993L535.275,169.993C535.343,169.993 535.406,169.998 535.463,170.008C535.521,170.018 535.563,170.044 535.59,170.084C535.604,170.104 535.616,170.14 535.626,170.191C535.636,170.242 535.643,170.294 535.646,170.348C535.649,170.403 535.648,170.455 535.641,170.506C535.634,170.557 535.621,170.596 535.6,170.623C535.573,170.67 535.522,170.704 535.448,170.724C535.394,170.738 535.333,170.743 535.265,170.739C535.197,170.736 535.136,170.734 535.082,170.734C535.041,170.734 535.001,170.736 534.96,170.739C534.92,170.743 534.882,170.741 534.848,170.734L534.727,170.734C534.693,170.728 534.66,170.723 534.63,170.719C534.6,170.716 534.567,170.714 534.533,170.714C534.398,170.68 534.281,170.643 534.183,170.602C534.085,170.562 534.002,170.491 533.934,170.389C533.839,170.253 533.785,170.082 533.771,169.876C533.758,169.669 533.751,169.447 533.751,169.21L533.751,166.549C533.731,166.46 533.712,166.396 533.695,166.355C533.678,166.315 533.629,166.281 533.548,166.254C533.521,166.247 533.494,166.247 533.467,166.254C533.44,166.261 533.413,166.257 533.385,166.244L533.223,166.244C533.135,166.244 533.062,166.235 533.004,166.218C532.947,166.201 532.908,166.162 532.888,166.101C532.874,166.074 532.866,166.044 532.862,166.01C532.859,165.976 532.857,165.942 532.857,165.908C532.857,165.814 532.864,165.734 532.877,165.67C532.891,165.605 532.932,165.556 532.999,165.522C533.074,165.495 533.17,165.489 533.289,165.502C533.407,165.516 533.507,165.509 533.589,165.482C533.65,165.448 533.697,165.4 533.731,165.34C533.744,165.299 533.751,165.248 533.751,165.187L533.751,164.217C533.751,164.159 533.758,164.11 533.771,164.07C533.799,164.015 533.849,163.971 533.924,163.937C533.944,163.937 533.963,163.936 533.98,163.932C533.997,163.929 534.012,163.927 534.025,163.927Z" style="fill:rgb(51,51,51);fill-rule:nonzero;"/>
        <path d="M536.779,164.496C536.725,164.456 536.696,164.383 536.692,164.278C536.689,164.173 536.687,164.07 536.687,163.968L536.687,163.795C536.687,163.734 536.698,163.683 536.718,163.643C536.745,163.589 536.799,163.548 536.88,163.521C536.894,163.514 536.909,163.512 536.926,163.516C536.943,163.519 536.958,163.518 536.972,163.511C537.087,163.511 537.195,163.514 537.297,163.521C537.399,163.528 537.466,163.568 537.5,163.643C537.52,163.683 537.531,163.733 537.531,163.79L537.531,163.968C537.531,164.09 537.529,164.205 537.526,164.313C537.522,164.422 537.476,164.493 537.388,164.527C537.355,164.54 537.319,164.547 537.282,164.547L536.952,164.547C536.884,164.547 536.826,164.53 536.779,164.496ZM537.531,170.257C537.531,170.325 537.532,170.394 537.536,170.465C537.539,170.536 537.524,170.592 537.49,170.633C537.47,170.673 537.439,170.699 537.399,170.709C537.358,170.719 537.311,170.731 537.256,170.745L537.104,170.745C537.016,170.745 536.94,170.739 536.875,170.729C536.811,170.719 536.762,170.687 536.728,170.633C536.701,170.592 536.687,170.54 536.687,170.475L536.687,165.771C536.687,165.7 536.704,165.644 536.738,165.604C536.758,165.57 536.786,165.549 536.819,165.543C536.853,165.536 536.891,165.526 536.931,165.512C536.945,165.512 536.96,165.514 536.977,165.517C536.994,165.521 537.009,165.519 537.023,165.512C537.111,165.512 537.2,165.514 537.292,165.517C537.383,165.521 537.446,165.549 537.48,165.604C537.514,165.644 537.531,165.697 537.531,165.761L537.531,170.257Z" style="fill:rgb(51,51,51);fill-rule:nonzero;"/>
        <path d="M543.667,167.9C543.681,167.94 543.688,168.003 543.688,168.088C543.688,168.172 543.684,168.232 543.677,168.266L543.677,168.367C543.671,168.421 543.666,168.47 543.662,168.514C543.659,168.558 543.654,168.608 543.647,168.662C543.633,168.702 543.625,168.743 543.621,168.784C543.618,168.824 543.61,168.865 543.596,168.906C543.569,168.994 543.545,169.082 543.525,169.17C543.505,169.258 543.478,169.339 543.444,169.414C543.301,169.739 543.112,170.011 542.875,170.231C542.638,170.452 542.346,170.619 542.001,170.734C541.926,170.761 541.847,170.782 541.762,170.795C541.678,170.809 541.591,170.822 541.503,170.836C541.463,170.843 541.42,170.848 541.376,170.851C541.332,170.855 541.29,170.856 541.249,170.856C541.222,170.863 541.183,170.866 541.132,170.866C541.082,170.866 541.046,170.863 541.026,170.856C540.999,170.85 540.971,170.848 540.944,170.851C540.917,170.855 540.894,170.853 540.873,170.846L540.812,170.846L540.568,170.816C540.474,170.789 540.382,170.761 540.294,170.734C540.206,170.707 540.121,170.677 540.04,170.643C539.735,170.507 539.485,170.331 539.288,170.115C539.092,169.898 538.929,169.634 538.801,169.322C538.767,169.254 538.741,169.187 538.724,169.119C538.707,169.051 538.692,168.98 538.679,168.906C538.665,168.879 538.66,168.857 538.663,168.84C538.667,168.823 538.665,168.801 538.658,168.774C538.645,168.719 538.636,168.663 538.633,168.606C538.63,168.548 538.621,168.492 538.608,168.438L538.608,168.352C538.608,168.328 538.604,168.299 538.597,168.266C538.591,168.232 538.587,168.172 538.587,168.088C538.587,168.003 538.594,167.94 538.608,167.9C538.621,167.852 538.625,167.805 538.618,167.758C538.611,167.71 538.614,167.663 538.628,167.615C538.635,167.581 538.64,167.553 538.643,167.529C538.647,167.505 538.652,167.476 538.658,167.443C538.679,167.361 538.697,167.28 538.714,167.199C538.731,167.117 538.757,167.04 538.79,166.965C538.892,166.714 539.016,166.489 539.161,166.289C539.307,166.09 539.485,165.922 539.695,165.787C539.776,165.732 539.861,165.687 539.949,165.649C540.037,165.612 540.128,165.573 540.223,165.533C540.304,165.499 540.392,165.477 540.487,165.467C540.582,165.456 540.677,165.438 540.772,165.411C540.819,165.411 540.865,165.409 540.909,165.406C540.953,165.402 540.995,165.397 541.036,165.39C541.639,165.384 542.14,165.509 542.539,165.766C542.939,166.024 543.227,166.359 543.403,166.772C543.437,166.84 543.464,166.908 543.484,166.975C543.505,167.043 543.528,167.114 543.555,167.189C543.576,167.263 543.593,167.343 543.606,167.427C543.62,167.512 543.637,167.598 543.657,167.686C543.664,167.72 543.666,167.756 543.662,167.793C543.659,167.83 543.66,167.866 543.667,167.9ZM542.763,168.479C542.777,168.431 542.782,168.377 542.778,168.316C542.775,168.255 542.773,168.198 542.773,168.144C542.773,167.879 542.749,167.656 542.702,167.473C542.682,167.419 542.665,167.365 542.651,167.311C542.638,167.256 542.621,167.206 542.6,167.158C542.411,166.718 542.109,166.413 541.696,166.244C541.649,166.223 541.598,166.208 541.544,166.198C541.49,166.188 541.435,166.176 541.381,166.162C541.327,166.149 541.269,166.142 541.209,166.142L541.026,166.142L540.843,166.173C540.775,166.186 540.712,166.201 540.655,166.218C540.597,166.235 540.541,166.257 540.487,166.284C540.44,166.298 540.396,166.318 540.355,166.345C540.314,166.372 540.277,166.4 540.243,166.427C540.081,166.542 539.949,166.681 539.847,166.843C539.745,167.006 539.657,167.195 539.583,167.412C539.563,167.48 539.549,167.549 539.542,167.62C539.536,167.692 539.525,167.764 539.512,167.839C539.505,167.866 539.502,167.91 539.502,167.971C539.495,167.991 539.493,168.015 539.497,168.042C539.5,168.069 539.502,168.1 539.502,168.133L539.502,168.337C539.502,168.404 539.508,168.465 539.522,168.52L539.542,168.641C539.556,168.709 539.568,168.775 539.578,168.84C539.588,168.904 539.607,168.963 539.634,169.017C539.701,169.18 539.781,169.332 539.872,169.475C539.964,169.617 540.077,169.735 540.213,169.83C540.247,169.85 540.277,169.867 540.304,169.881C540.331,169.895 540.362,169.911 540.396,169.932C540.45,169.966 540.509,169.994 540.574,170.018C540.638,170.042 540.707,170.064 540.782,170.084C540.816,170.098 540.848,170.103 540.878,170.099C540.909,170.096 540.941,170.098 540.975,170.104C540.995,170.111 541.037,170.118 541.102,170.125C541.166,170.132 541.215,170.128 541.249,170.115C541.276,170.108 541.303,170.106 541.33,170.11C541.358,170.113 541.385,170.108 541.412,170.094C541.466,170.081 541.52,170.069 541.574,170.059C541.628,170.049 541.679,170.033 541.727,170.013C541.957,169.918 542.143,169.786 542.285,169.617C542.428,169.447 542.546,169.248 542.641,169.017C542.675,168.936 542.697,168.85 542.707,168.758C542.717,168.667 542.736,168.574 542.763,168.479Z" style="fill:rgb(51,51,51);fill-rule:nonzero;"/>
        <path d="M547.172,165.411C547.599,165.397 547.941,165.455 548.199,165.583C548.456,165.712 548.662,165.905 548.818,166.162C548.859,166.23 548.891,166.303 548.915,166.381C548.938,166.459 548.961,166.538 548.981,166.62C549.015,166.748 549.035,166.887 549.042,167.036C549.049,167.185 549.052,167.338 549.052,167.493L549.052,170.165C549.052,170.281 549.05,170.396 549.047,170.511C549.043,170.626 548.998,170.701 548.91,170.734C548.876,170.748 548.84,170.756 548.803,170.76C548.766,170.763 548.727,170.765 548.686,170.765C548.598,170.765 548.513,170.763 548.432,170.76C548.351,170.756 548.293,170.728 548.259,170.673C548.226,170.626 548.209,170.565 548.209,170.491L548.209,167.737C548.209,167.554 548.205,167.373 548.199,167.194C548.192,167.014 548.161,166.86 548.107,166.731C548.053,166.596 547.972,166.486 547.863,166.401C547.755,166.317 547.63,166.251 547.487,166.203C547.447,166.19 547.404,166.181 547.36,166.178C547.316,166.174 547.274,166.166 547.233,166.152C547.199,166.146 547.147,166.144 547.076,166.147C547.005,166.151 546.956,166.156 546.929,166.162C546.901,166.176 546.878,166.181 546.857,166.178C546.837,166.174 546.813,166.176 546.786,166.183C546.698,166.203 546.615,166.225 546.537,166.249C546.459,166.273 546.387,166.305 546.319,166.345C546.292,166.359 546.268,166.372 546.248,166.386C546.228,166.4 546.204,166.413 546.177,166.427C545.94,166.596 545.767,166.85 545.659,167.189C545.638,167.243 545.625,167.299 545.618,167.356C545.611,167.414 545.601,167.47 545.587,167.524C545.574,167.558 545.57,167.59 545.577,167.62C545.584,167.651 545.581,167.68 545.567,167.707L545.567,167.92C545.56,167.94 545.559,167.964 545.562,167.991C545.565,168.018 545.567,168.049 545.567,168.083L545.567,170.485C545.567,170.563 545.55,170.626 545.516,170.673C545.482,170.728 545.423,170.756 545.339,170.76C545.254,170.763 545.167,170.765 545.079,170.765C545.025,170.765 544.974,170.761 544.927,170.755C544.88,170.748 544.839,170.731 544.805,170.704C544.751,170.67 544.724,170.606 544.724,170.511L544.724,165.776C544.724,165.715 544.737,165.668 544.764,165.634C544.785,165.594 544.819,165.566 544.866,165.553C544.893,165.546 544.932,165.539 544.983,165.533C545.034,165.526 545.086,165.522 545.14,165.522C545.195,165.522 545.247,165.526 545.298,165.533C545.349,165.539 545.384,165.549 545.405,165.563C545.479,165.61 545.513,165.67 545.506,165.741C545.499,165.812 545.51,165.892 545.537,165.98C545.55,166.02 545.577,166.054 545.618,166.081C545.699,166.088 545.765,166.057 545.816,165.99C545.867,165.922 545.919,165.868 545.974,165.827C546.068,165.759 546.165,165.697 546.263,165.639C546.361,165.582 546.475,165.533 546.603,165.492C546.658,165.472 546.717,165.458 546.781,165.451C546.846,165.444 546.908,165.434 546.969,165.421C547.003,165.414 547.037,165.411 547.071,165.411L547.172,165.411Z" style="fill:rgb(51,51,51);fill-rule:nonzero;"/>
    </g>
</svg>
