<?xml version="1.0" encoding="UTF-8" standalone="no"?>
<!DOCTYPE svg PUBLIC "-//W3C//DTD SVG 1.1//EN" "http://www.w3.org/Graphics/SVG/1.1/DTD/svg11.dtd">
<svg width="100%" height="100%" viewBox="0 0 1333 1000" version="1.1" xmlns="http://www.w3.org/2000/svg" xmlns:xlink="http://www.w3.org/1999/xlink" xml:space="preserve" xmlns:serif="http://www.serif.com/" style="fill-rule:evenodd;clip-rule:evenodd;stroke-linejoin:round;stroke-miterlimit:2;">
    <g transform="matrix(9.842639,0,0,9.842639,-3871.986755,-1210.977066)">
        <path d="M447.961,163.521C448.076,163.521 448.191,163.519 448.307,163.516C448.422,163.512 448.513,163.538 448.581,163.592C448.635,163.626 448.669,163.68 448.683,163.755C448.696,163.829 448.71,163.9 448.723,163.968C448.75,164.063 448.774,164.156 448.794,164.247C448.815,164.339 448.838,164.432 448.865,164.527C448.879,164.561 448.886,164.594 448.886,164.628C448.886,164.662 448.892,164.696 448.906,164.73C448.94,164.845 448.965,164.957 448.982,165.065C448.999,165.174 449.025,165.285 449.058,165.4C449.092,165.495 449.116,165.592 449.13,165.69C449.143,165.788 449.167,165.885 449.201,165.98C449.282,166.271 449.353,166.565 449.414,166.863C449.475,167.162 449.546,167.46 449.627,167.758L449.658,167.94C449.705,168.096 449.744,168.257 449.775,168.423C449.805,168.589 449.848,168.75 449.902,168.906C449.915,168.96 449.932,169.026 449.953,169.104C449.973,169.182 450.017,169.221 450.085,169.221C450.098,169.207 450.11,169.199 450.12,169.195C450.13,169.192 450.139,169.183 450.146,169.17C450.186,169.116 450.215,169.05 450.232,168.972C450.249,168.894 450.267,168.818 450.288,168.743C450.322,168.641 450.352,168.538 450.379,168.433C450.406,168.328 450.437,168.225 450.471,168.123C450.484,168.089 450.491,168.057 450.491,168.027C450.491,167.996 450.498,167.964 450.511,167.93C450.545,167.835 450.572,167.737 450.593,167.636C450.613,167.534 450.64,167.436 450.674,167.341C450.687,167.307 450.694,167.278 450.694,167.255C450.694,167.231 450.701,167.202 450.714,167.168C450.742,167.087 450.764,167.004 450.781,166.919C450.797,166.835 450.823,166.748 450.857,166.66C450.87,166.599 450.886,166.538 450.902,166.477C450.919,166.416 450.938,166.352 450.958,166.284C451.033,166.047 451.099,165.803 451.156,165.553C451.214,165.302 451.28,165.058 451.355,164.821C451.368,164.787 451.375,164.757 451.375,164.73C451.375,164.703 451.382,164.672 451.395,164.638C451.436,164.523 451.47,164.406 451.497,164.288C451.524,164.169 451.558,164.053 451.598,163.937C451.619,163.863 451.636,163.794 451.649,163.729C451.663,163.665 451.697,163.616 451.751,163.582C451.805,163.541 451.885,163.521 451.99,163.521L452.289,163.521C452.343,163.521 452.396,163.519 452.447,163.516C452.498,163.512 452.543,163.518 452.584,163.531C452.679,163.558 452.736,163.606 452.757,163.673C452.777,163.741 452.804,163.819 452.838,163.907C452.872,163.995 452.897,164.085 452.914,164.176C452.931,164.268 452.956,164.361 452.99,164.456C452.997,164.476 453,164.496 453,164.517C453,164.537 453.007,164.561 453.021,164.588C453.055,164.683 453.083,164.784 453.107,164.892C453.131,165.001 453.16,165.102 453.194,165.197C453.2,165.231 453.204,165.258 453.204,165.279C453.204,165.299 453.21,165.323 453.224,165.35C453.251,165.431 453.273,165.514 453.29,165.599C453.307,165.683 453.329,165.766 453.356,165.848C453.37,165.868 453.376,165.888 453.376,165.908C453.376,165.929 453.38,165.952 453.387,165.98C453.414,166.054 453.434,166.127 453.448,166.198C453.461,166.269 453.481,166.342 453.508,166.416C453.522,166.471 453.536,166.523 453.549,166.574C453.563,166.625 453.576,166.677 453.59,166.731C453.651,166.921 453.703,167.114 453.747,167.311C453.791,167.507 453.844,167.703 453.905,167.9C453.918,167.934 453.927,167.971 453.93,168.012C453.933,168.052 453.942,168.089 453.955,168.123C454.003,168.252 454.042,168.384 454.072,168.52C454.103,168.655 454.138,168.787 454.179,168.916C454.193,168.963 454.209,169.024 454.23,169.099C454.25,169.173 454.287,169.214 454.342,169.221C454.362,169.227 454.379,169.224 454.392,169.21C454.406,169.197 454.416,169.183 454.423,169.17C454.45,169.136 454.47,169.099 454.484,169.058C454.497,169.017 454.511,168.97 454.524,168.916C454.565,168.787 454.601,168.655 454.631,168.52C454.662,168.384 454.694,168.249 454.728,168.113C454.741,168.066 454.751,168.02 454.758,167.976C454.765,167.932 454.775,167.883 454.789,167.829C454.829,167.714 454.861,167.593 454.885,167.468C454.909,167.343 454.938,167.216 454.971,167.087C455.066,166.762 455.149,166.43 455.22,166.091C455.292,165.753 455.374,165.421 455.469,165.096C455.496,164.994 455.52,164.891 455.54,164.786C455.561,164.681 455.588,164.578 455.622,164.476C455.649,164.374 455.671,164.273 455.688,164.171C455.705,164.07 455.73,163.971 455.764,163.876C455.778,163.822 455.793,163.768 455.81,163.714C455.827,163.66 455.852,163.619 455.886,163.592C455.933,163.558 455.991,163.538 456.059,163.531C456.126,163.524 456.197,163.521 456.272,163.521L456.485,163.521C456.506,163.521 456.524,163.523 456.541,163.526C456.558,163.529 456.577,163.531 456.597,163.531C456.638,163.545 456.673,163.572 456.704,163.612C456.734,163.653 456.743,163.707 456.729,163.775C456.702,163.87 456.677,163.965 456.653,164.059C456.629,164.154 456.604,164.249 456.577,164.344C456.556,164.405 456.539,164.466 456.526,164.527C456.512,164.588 456.495,164.649 456.475,164.71C456.441,164.798 456.418,164.886 456.404,164.974C456.39,165.062 456.37,165.15 456.343,165.238C456.302,165.353 456.267,165.475 456.236,165.604C456.206,165.732 456.174,165.854 456.14,165.969C456.126,166.003 456.118,166.037 456.114,166.071C456.111,166.105 456.103,166.139 456.089,166.173C456.055,166.267 456.028,166.364 456.008,166.462C455.987,166.56 455.96,166.657 455.927,166.752C455.913,166.786 455.906,166.816 455.906,166.843C455.906,166.87 455.899,166.901 455.886,166.935C455.859,167.016 455.837,167.099 455.82,167.184C455.803,167.268 455.781,167.348 455.754,167.422C455.74,167.449 455.733,167.473 455.733,167.493C455.733,167.514 455.73,167.534 455.723,167.554C455.696,167.636 455.674,167.719 455.657,167.803C455.64,167.888 455.618,167.971 455.591,168.052C455.571,168.106 455.554,168.166 455.54,168.23C455.527,168.294 455.51,168.357 455.49,168.418C455.429,168.601 455.376,168.789 455.332,168.982C455.288,169.175 455.239,169.363 455.185,169.546C455.171,169.58 455.165,169.61 455.165,169.637C455.165,169.664 455.158,169.695 455.144,169.729C455.11,169.823 455.082,169.923 455.058,170.028C455.034,170.133 455.005,170.233 454.971,170.328C454.951,170.403 454.931,170.475 454.911,170.546C454.89,170.618 454.853,170.67 454.799,170.704C454.751,170.738 454.687,170.755 454.606,170.755L454.118,170.755C454.071,170.741 454.032,170.733 454.001,170.729C453.971,170.726 453.939,170.711 453.905,170.684C453.864,170.65 453.835,170.606 453.818,170.552C453.801,170.497 453.786,170.443 453.773,170.389C453.739,170.294 453.712,170.199 453.691,170.104C453.671,170.01 453.644,169.915 453.61,169.82C453.597,169.793 453.59,169.768 453.59,169.744C453.59,169.72 453.583,169.695 453.569,169.668C453.536,169.552 453.505,169.432 453.478,169.307C453.451,169.182 453.417,169.058 453.376,168.936C453.343,168.835 453.314,168.73 453.29,168.621C453.266,168.513 453.238,168.408 453.204,168.306C453.177,168.232 453.156,168.157 453.143,168.083C453.129,168.008 453.109,167.934 453.082,167.859C453,167.602 452.929,167.343 452.868,167.082C452.807,166.821 452.736,166.565 452.655,166.315C452.641,166.281 452.633,166.245 452.63,166.208C452.626,166.171 452.618,166.132 452.604,166.091C452.557,165.956 452.518,165.82 452.487,165.685C452.457,165.549 452.418,165.414 452.371,165.279C452.357,165.224 452.338,165.16 452.315,165.086C452.291,165.011 452.242,164.974 452.167,164.974C452.161,164.987 452.154,164.994 452.147,164.994C452.14,164.994 452.13,165.001 452.117,165.014C452.076,165.069 452.047,165.136 452.03,165.218C452.013,165.299 451.991,165.377 451.964,165.451C451.93,165.566 451.898,165.682 451.868,165.797C451.837,165.912 451.805,166.027 451.771,166.142C451.758,166.169 451.751,166.193 451.751,166.213C451.751,166.234 451.744,166.257 451.73,166.284C451.697,166.379 451.671,166.476 451.654,166.574C451.637,166.672 451.612,166.772 451.578,166.874C451.551,166.941 451.531,167.007 451.517,167.072C451.504,167.136 451.487,167.206 451.466,167.28C451.392,167.51 451.326,167.746 451.268,167.986C451.211,168.227 451.145,168.462 451.07,168.692C451.057,168.719 451.05,168.745 451.05,168.768C451.05,168.792 451.043,168.818 451.029,168.845C450.996,168.939 450.968,169.038 450.948,169.139C450.928,169.241 450.901,169.342 450.867,169.444C450.853,169.478 450.845,169.507 450.841,169.53C450.838,169.554 450.83,169.583 450.816,169.617C450.782,169.732 450.75,169.847 450.72,169.962C450.689,170.077 450.657,170.193 450.623,170.308C450.596,170.382 450.574,170.458 450.557,170.536C450.54,170.614 450.501,170.67 450.44,170.704C450.386,170.738 450.313,170.755 450.222,170.755L449.953,170.755C449.905,170.755 449.858,170.756 449.81,170.76C449.763,170.763 449.719,170.758 449.678,170.745C449.563,170.717 449.495,170.662 449.475,170.577C449.455,170.492 449.428,170.396 449.394,170.287C449.346,170.145 449.307,170 449.277,169.85C449.246,169.701 449.207,169.556 449.16,169.414C449.146,169.38 449.138,169.344 449.135,169.307C449.131,169.27 449.123,169.234 449.109,169.2C449.055,169.044 449.013,168.884 448.982,168.718C448.952,168.552 448.909,168.391 448.855,168.235C448.848,168.201 448.843,168.171 448.84,168.144C448.837,168.117 448.828,168.086 448.815,168.052C448.781,167.951 448.754,167.844 448.733,167.732C448.713,167.62 448.686,167.514 448.652,167.412C448.638,167.385 448.632,167.36 448.632,167.336C448.632,167.312 448.625,167.287 448.611,167.26C448.591,167.185 448.572,167.109 448.556,167.031C448.539,166.953 448.517,166.877 448.489,166.803C448.483,166.775 448.478,166.752 448.474,166.731C448.471,166.711 448.466,166.687 448.459,166.66C448.439,166.593 448.422,166.525 448.408,166.457C448.395,166.389 448.378,166.318 448.357,166.244C448.337,166.19 448.322,166.132 448.312,166.071C448.302,166.01 448.286,165.949 448.266,165.888C448.212,165.739 448.169,165.587 448.139,165.431C448.108,165.275 448.07,165.123 448.022,164.974C448.009,164.933 447.998,164.892 447.992,164.852C447.985,164.811 447.975,164.767 447.961,164.72C447.927,164.605 447.895,164.483 447.865,164.354C447.834,164.225 447.802,164.1 447.768,163.978C447.755,163.937 447.739,163.878 447.722,163.8C447.705,163.722 447.714,163.66 447.748,163.612C447.768,163.572 447.812,163.545 447.88,163.531C447.893,163.524 447.907,163.523 447.921,163.526C447.934,163.529 447.948,163.528 447.961,163.521Z" style="fill:rgb(51,51,51);fill-rule:nonzero;"/>
        <path d="M462.114,167.92C462.127,167.988 462.129,168.064 462.119,168.149C462.109,168.233 462.087,168.293 462.053,168.327C462.019,168.354 461.97,168.372 461.906,168.382C461.841,168.393 461.768,168.398 461.687,168.398C461.606,168.398 461.525,168.396 461.443,168.393C461.362,168.389 461.291,168.387 461.23,168.387L458.629,168.387C458.575,168.387 458.521,168.389 458.466,168.393C458.412,168.396 458.368,168.408 458.334,168.428C458.307,168.442 458.28,168.469 458.253,168.509C458.24,168.53 458.226,168.558 458.212,168.596C458.199,168.633 458.199,168.669 458.212,168.702C458.219,168.736 458.223,168.767 458.223,168.794C458.223,168.821 458.226,168.848 458.233,168.875C458.246,168.929 458.26,168.985 458.273,169.043C458.287,169.1 458.307,169.156 458.334,169.21C458.49,169.576 458.748,169.837 459.107,169.993C459.147,170.013 459.191,170.03 459.239,170.044C459.286,170.057 459.333,170.071 459.381,170.084C459.401,170.091 459.435,170.094 459.482,170.094C459.577,170.121 459.703,170.135 459.858,170.135C460.014,170.135 460.139,170.121 460.234,170.094C460.329,170.067 460.415,170.038 460.493,170.008C460.571,169.977 460.644,169.939 460.712,169.891C460.786,169.844 460.851,169.788 460.905,169.723C460.959,169.659 461.006,169.59 461.047,169.515C461.088,169.447 461.123,169.376 461.154,169.302C461.184,169.227 461.237,169.173 461.311,169.139C461.338,169.126 461.382,169.116 461.443,169.109C461.504,169.102 461.565,169.1 461.626,169.104C461.687,169.107 461.745,169.112 461.799,169.119C461.853,169.126 461.89,169.139 461.911,169.16C461.978,169.207 461.995,169.285 461.961,169.393C461.907,169.576 461.836,169.739 461.748,169.881C461.613,170.098 461.459,170.276 461.286,170.414C461.113,170.553 460.895,170.667 460.631,170.755C460.563,170.782 460.495,170.8 460.427,170.811C460.36,170.821 460.288,170.833 460.214,170.846C460.18,170.853 460.148,170.856 460.117,170.856C460.087,170.856 460.055,170.86 460.021,170.866L459.919,170.866C459.885,170.873 459.847,170.877 459.803,170.877C459.758,170.877 459.723,170.873 459.696,170.866L459.604,170.866C459.571,170.86 459.54,170.856 459.513,170.856C459.486,170.856 459.459,170.853 459.432,170.846C459.398,170.839 459.361,170.834 459.32,170.831C459.279,170.828 459.242,170.822 459.208,170.816C459.147,170.802 459.086,170.787 459.025,170.77C458.964,170.753 458.907,170.734 458.853,170.714C458.825,170.701 458.802,170.692 458.781,170.689C458.761,170.685 458.737,170.677 458.71,170.663C458.609,170.616 458.5,170.558 458.385,170.491C458.189,170.362 458.021,170.204 457.882,170.018C457.743,169.832 457.627,169.624 457.532,169.393C457.498,169.319 457.473,169.241 457.456,169.16C457.439,169.078 457.417,168.997 457.39,168.916C457.383,168.889 457.379,168.865 457.379,168.845C457.379,168.824 457.376,168.797 457.369,168.763C457.356,168.709 457.346,168.652 457.339,168.591C457.332,168.53 457.322,168.469 457.308,168.408L457.308,168.266C457.301,168.238 457.296,168.2 457.293,168.149C457.29,168.098 457.291,168.056 457.298,168.022L457.298,167.91C457.312,167.876 457.317,167.841 457.313,167.803C457.31,167.766 457.312,167.73 457.318,167.697C457.346,167.588 457.368,167.48 457.384,167.371C457.401,167.263 457.43,167.162 457.471,167.067C457.505,166.992 457.537,166.916 457.567,166.838C457.598,166.76 457.633,166.684 457.674,166.609C457.823,166.372 457.992,166.168 458.182,165.995C458.372,165.822 458.605,165.678 458.883,165.563C458.964,165.529 459.047,165.504 459.132,165.487C459.217,165.47 459.306,165.451 459.401,165.431C459.435,165.424 459.466,165.419 459.493,165.416C459.52,165.412 459.55,165.411 459.584,165.411C459.598,165.404 459.615,165.404 459.635,165.411C459.655,165.417 459.672,165.414 459.686,165.4C459.97,165.394 460.217,165.422 460.427,165.487C460.637,165.551 460.827,165.638 460.996,165.746C461.03,165.759 461.057,165.778 461.078,165.802C461.098,165.825 461.122,165.844 461.149,165.858C461.203,165.898 461.259,165.946 461.316,166C461.374,166.054 461.423,166.108 461.464,166.162C461.572,166.305 461.663,166.44 461.738,166.569C461.785,166.643 461.823,166.725 461.85,166.813C461.877,166.901 461.907,166.989 461.941,167.077C461.975,167.165 462,167.256 462.017,167.351C462.034,167.446 462.056,167.541 462.083,167.636C462.09,167.683 462.095,167.73 462.099,167.778C462.102,167.825 462.107,167.873 462.114,167.92ZM461.128,167.575C461.149,167.548 461.166,167.512 461.179,167.468C461.193,167.424 461.193,167.378 461.179,167.331C461.139,167.182 461.081,167.043 461.006,166.914C460.912,166.759 460.807,166.626 460.691,166.518C460.576,166.41 460.427,166.318 460.244,166.244C460.197,166.23 460.15,166.218 460.102,166.208C460.055,166.198 460.004,166.186 459.95,166.173C459.896,166.159 459.838,166.152 459.777,166.152L459.604,166.152C459.584,166.166 459.56,166.171 459.533,166.168C459.506,166.164 459.482,166.166 459.462,166.173C459.408,166.186 459.355,166.198 459.305,166.208C459.254,166.218 459.205,166.23 459.157,166.244C458.961,166.325 458.803,166.427 458.685,166.549C458.566,166.67 458.46,166.823 458.365,167.006C458.345,167.04 458.324,167.082 458.304,167.133C458.284,167.184 458.267,167.239 458.253,167.3C458.24,167.361 458.236,167.419 458.243,167.473C458.25,167.527 458.273,167.568 458.314,167.595C458.368,167.636 458.461,167.654 458.593,167.651C458.726,167.647 458.839,167.646 458.934,167.646L460.478,167.646C460.58,167.646 460.702,167.647 460.844,167.651C460.986,167.654 461.081,167.629 461.128,167.575Z" style="fill:rgb(51,51,51);fill-rule:nonzero;"/>
        <path d="M463.384,163.511L463.663,163.511C463.761,163.511 463.834,163.534 463.882,163.582C463.916,163.629 463.934,163.692 463.938,163.77C463.941,163.848 463.943,163.927 463.943,164.009L463.943,170.43C463.943,170.524 463.926,170.599 463.892,170.653C463.872,170.687 463.843,170.707 463.805,170.714C463.768,170.721 463.723,170.731 463.668,170.745L463.526,170.745C463.452,170.745 463.38,170.743 463.313,170.739C463.245,170.736 463.194,170.714 463.16,170.673C463.126,170.619 463.108,170.552 463.104,170.47C463.101,170.389 463.099,170.304 463.099,170.216L463.099,164.059C463.099,163.985 463.098,163.905 463.094,163.821C463.091,163.736 463.106,163.67 463.14,163.622C463.167,163.582 463.218,163.548 463.292,163.521C463.306,163.514 463.321,163.512 463.338,163.516C463.355,163.519 463.37,163.518 463.384,163.511Z" style="fill:rgb(51,51,51);fill-rule:nonzero;"/>
        <path d="M465.639,163.511L465.919,163.511C466.017,163.511 466.09,163.534 466.137,163.582C466.171,163.629 466.19,163.692 466.193,163.77C466.196,163.848 466.198,163.927 466.198,164.009L466.198,170.43C466.198,170.524 466.181,170.599 466.147,170.653C466.127,170.687 466.098,170.707 466.061,170.714C466.024,170.721 465.978,170.731 465.924,170.745L465.782,170.745C465.707,170.745 465.636,170.743 465.568,170.739C465.501,170.736 465.45,170.714 465.416,170.673C465.382,170.619 465.363,170.552 465.36,170.47C465.357,170.389 465.355,170.304 465.355,170.216L465.355,164.059C465.355,163.985 465.353,163.905 465.35,163.821C465.346,163.736 465.362,163.67 465.396,163.622C465.423,163.582 465.473,163.548 465.548,163.521C465.561,163.514 465.577,163.512 465.594,163.516C465.611,163.519 465.626,163.518 465.639,163.511Z" style="fill:rgb(51,51,51);fill-rule:nonzero;"/>
        <path d="M468.007,169.637C468.068,169.637 468.135,169.635 468.21,169.632C468.284,169.629 468.357,169.629 468.428,169.632C468.499,169.635 468.565,169.642 468.626,169.652C468.687,169.663 468.735,169.681 468.769,169.708C468.782,169.722 468.794,169.742 468.804,169.769C468.814,169.796 468.826,169.827 468.84,169.861L468.84,169.911C468.846,169.945 468.848,169.981 468.845,170.018C468.841,170.055 468.84,170.091 468.84,170.125L468.84,170.445C468.84,170.563 468.813,170.646 468.758,170.694C468.711,170.728 468.652,170.745 468.581,170.745L468.052,170.745C467.947,170.745 467.868,170.724 467.814,170.684C467.786,170.663 467.766,170.628 467.753,170.577C467.739,170.526 467.731,170.469 467.727,170.404C467.724,170.34 467.724,170.276 467.727,170.211C467.731,170.147 467.732,170.091 467.732,170.044L467.732,169.911C467.732,169.871 467.739,169.834 467.753,169.8C467.78,169.725 467.827,169.678 467.895,169.657C467.915,169.657 467.952,169.651 468.007,169.637Z" style="fill:rgb(51,51,51);fill-rule:nonzero;"/>
        <path d="M470.831,169.637C470.892,169.637 470.96,169.635 471.034,169.632C471.109,169.629 471.182,169.629 471.253,169.632C471.324,169.635 471.39,169.642 471.451,169.652C471.512,169.663 471.559,169.681 471.593,169.708C471.607,169.722 471.618,169.742 471.629,169.769C471.639,169.796 471.651,169.827 471.664,169.861L471.664,169.911C471.671,169.945 471.673,169.981 471.669,170.018C471.666,170.055 471.664,170.091 471.664,170.125L471.664,170.445C471.664,170.563 471.637,170.646 471.583,170.694C471.535,170.728 471.476,170.745 471.405,170.745L470.877,170.745C470.772,170.745 470.692,170.724 470.638,170.684C470.611,170.663 470.591,170.628 470.577,170.577C470.564,170.526 470.555,170.469 470.552,170.404C470.548,170.34 470.548,170.276 470.552,170.211C470.555,170.147 470.557,170.091 470.557,170.044L470.557,169.911C470.557,169.871 470.564,169.834 470.577,169.8C470.604,169.725 470.652,169.678 470.719,169.657C470.74,169.657 470.777,169.651 470.831,169.637Z" style="fill:rgb(51,51,51);fill-rule:nonzero;"/>
        <path d="M473.655,169.637C473.716,169.637 473.784,169.635 473.859,169.632C473.933,169.629 474.006,169.629 474.077,169.632C474.148,169.635 474.214,169.642 474.275,169.652C474.336,169.663 474.384,169.681 474.417,169.708C474.431,169.722 474.443,169.742 474.453,169.769C474.463,169.796 474.475,169.827 474.489,169.861L474.489,169.911C474.495,169.945 474.497,169.981 474.494,170.018C474.49,170.055 474.489,170.091 474.489,170.125L474.489,170.445C474.489,170.563 474.462,170.646 474.407,170.694C474.36,170.728 474.301,170.745 474.23,170.745L473.701,170.745C473.596,170.745 473.517,170.724 473.462,170.684C473.435,170.663 473.415,170.628 473.402,170.577C473.388,170.526 473.379,170.469 473.376,170.404C473.373,170.34 473.373,170.276 473.376,170.211C473.379,170.147 473.381,170.091 473.381,170.044L473.381,169.911C473.381,169.871 473.388,169.834 473.402,169.8C473.429,169.725 473.476,169.678 473.544,169.657C473.564,169.657 473.601,169.651 473.655,169.637Z" style="fill:rgb(51,51,51);fill-rule:nonzero;"/>
    </g>
</svg>
