<?xml version="1.0" encoding="UTF-8" standalone="no"?>
<!DOCTYPE svg PUBLIC "-//W3C//DTD SVG 1.1//EN" "http://www.w3.org/Graphics/SVG/1.1/DTD/svg11.dtd">
<svg width="100%" height="100%" viewBox="0 0 1333 1000" version="1.1" xmlns="http://www.w3.org/2000/svg" xmlns:xlink="http://www.w3.org/1999/xlink" xml:space="preserve" xmlns:serif="http://www.serif.com/" style="fill-rule:evenodd;clip-rule:evenodd;stroke-linejoin:round;stroke-miterlimit:2;">
    <g transform="matrix(4.125422,0,0,4.125422,751.791942,387.567353)">
        <g transform="matrix(1,0,0,1,5,10)">
            <path d="M91.688,29.832C91.196,29.117 90.442,28.625 89.586,28.469C88.735,28.312 87.852,28.5 87.137,28.992C74.266,37.844 74.383,44.367 75.875,51.976C76.832,56.867 77.66,61.086 70.953,68.121L70.953,68.117C69.078,70.242 66.359,71.426 63.527,71.356C61.141,71.195 58.817,70.524 56.711,69.387C56.863,68.348 57.117,67.324 57.469,66.336L70.481,36.469C70.559,36.442 70.641,36.418 70.715,36.387C74.336,34.981 76.375,32.297 76.938,28.258L76.942,28.258C78.985,28.137 80.875,27.125 82.11,25.492C83.34,23.856 83.793,21.762 83.348,19.762C82.899,17.762 81.598,16.059 79.786,15.106C77.973,14.149 75.833,14.039 73.93,14.801C70.137,8.703 63.469,5 56.289,5C49.109,5 42.437,8.711 38.648,14.809C37.828,14.473 36.949,14.301 36.058,14.301C32.281,14.297 29.183,17.301 29.07,21.078C28.957,24.856 31.871,28.039 35.644,28.258C36.207,32.297 38.246,34.981 41.867,36.387C42.031,36.449 42.211,36.496 42.379,36.555L42.039,37.332C41.707,37.395 41.371,37.449 41.035,37.496C40.93,37.481 40.828,37.477 40.722,37.461L40.722,37.465C34.851,36.524 29.601,33.27 26.14,28.434C24.168,25.699 20.437,24.907 17.523,26.606C14.859,25.059 11.472,25.59 9.406,27.879C7.34,30.164 7.156,33.586 8.965,36.082C14.445,43.746 22.766,48.898 32.07,50.391C33.429,50.602 34.8,50.739 36.175,50.794L34.538,54.547L34.542,54.544C33.546,56.829 33.206,59.344 33.566,61.809C33.546,61.848 33.527,61.883 33.511,61.926C31.562,67.344 31.269,73.223 32.667,78.809C34.066,84.395 37.097,89.442 41.37,93.301C42.827,94.637 44.812,95.239 46.765,94.938C48.718,94.637 50.429,93.465 51.413,91.754C51.917,92.286 52.445,92.805 52.995,93.305L52.999,93.301C55.675,95.731 59.816,95.532 62.245,92.852C64.675,90.176 64.476,86.036 61.796,83.606C59.741,81.743 58.202,79.379 57.331,76.747C59.257,77.426 61.277,77.817 63.32,77.899C63.495,77.903 63.671,77.907 63.847,77.907C68.363,77.911 72.671,75.997 75.691,72.637C84.734,63.153 83.382,56.254 82.3,50.715C81.254,45.368 80.496,41.504 90.847,34.387C91.562,33.895 92.054,33.137 92.211,32.286C92.367,31.43 92.179,30.547 91.687,29.833L91.688,29.832ZM38.739,25.828C38.735,21.172 40.583,16.703 43.876,13.406C47.169,10.113 51.633,8.262 56.294,8.262C60.95,8.262 65.419,10.113 68.712,13.406C72.005,16.703 73.852,21.172 73.848,25.828C73.848,30.969 71.669,32.508 69.532,33.336C68.337,33.769 67.098,34.051 65.837,34.184C64.587,32.957 62.899,32.277 61.145,32.305C61.813,31.477 62.259,30.492 62.438,29.445L64.626,29.445C68.79,29.445 72.165,26.07 72.165,21.91C72.165,17.746 68.79,14.371 64.626,14.371L47.962,14.371C43.798,14.371 40.423,17.746 40.423,21.91C40.423,26.07 43.798,29.445 47.962,29.445L50.149,29.445C50.583,31.976 52.52,33.984 55.032,34.508C50.364,34.508 45.989,34.477 43.052,33.336C40.919,32.508 38.74,30.969 38.74,25.828L38.739,25.828ZM53.899,27.582L58.688,27.582L58.688,30.117C58.688,31.441 57.614,32.512 56.294,32.512C54.969,32.512 53.899,31.441 53.899,30.117L53.899,27.582ZM49.68,27.348L49.676,27.348C47.477,27.348 45.497,26.023 44.653,23.988C43.813,21.957 44.278,19.621 45.833,18.062C47.387,16.508 49.727,16.043 51.758,16.887C53.79,17.726 55.114,19.711 55.114,21.91C55.114,23.351 54.544,24.734 53.52,25.754C52.501,26.773 51.118,27.348 49.676,27.348L49.68,27.348ZM57.469,21.91C57.469,19.711 58.793,17.727 60.829,16.887C62.86,16.043 65.196,16.508 66.751,18.063C68.309,19.621 68.774,21.957 67.93,23.988C67.09,26.024 65.106,27.348 62.907,27.348C59.907,27.348 57.469,24.91 57.469,21.91L57.469,21.91ZM47.383,37.555C46.743,37.641 46.094,37.692 45.442,37.723L45.61,37.332C46.188,37.426 46.778,37.497 47.383,37.555L47.383,37.555ZM11.621,34.168C10.903,33.176 10.805,31.86 11.363,30.766C11.922,29.672 13.047,28.985 14.274,28.985C14.555,28.989 14.832,29.028 15.098,29.102C13.879,31.313 14.039,34.028 15.512,36.083C17.867,39.36 20.762,42.215 24.074,44.524C19.106,42.196 14.821,38.63 11.621,34.169L11.621,34.168ZM18.168,34.168C17.113,32.704 17.446,30.657 18.914,29.602C20.383,28.543 22.426,28.879 23.485,30.344C27.461,35.875 33.473,39.602 40.196,40.696C46.922,41.794 53.805,40.169 59.333,36.188C60.801,35.13 62.844,35.462 63.903,36.931C64.958,38.399 64.626,40.442 63.157,41.501C57.704,45.458 51.134,47.587 44.391,47.587C42.633,47.587 40.879,47.442 39.145,47.161C30.699,45.806 23.145,41.13 18.168,34.169L18.168,34.168ZM48.191,90.652C46.957,91.942 44.926,92.039 43.57,90.879C36.945,84.887 33.894,75.891 35.508,67.106C36.941,69.383 39.027,71.176 41.496,72.247L41.656,72.317L41.66,72.313C41.785,76.715 43.418,80.938 46.285,84.278C47.051,85.883 47.965,87.411 49.012,88.844C48.933,89.52 48.648,90.153 48.191,90.653L48.191,90.652ZM59.597,86.027C60.937,87.246 61.035,89.313 59.82,90.652C58.582,91.942 56.554,92.039 55.199,90.879C51.406,87.449 48.714,82.973 47.472,78.012C46.23,73.055 46.492,67.836 48.222,63.028C48.523,62.176 48.082,61.239 47.23,60.934C46.378,60.629 45.445,61.075 45.14,61.926C44.261,64.387 43.722,66.954 43.531,69.559L42.808,69.243L42.804,69.243C37.656,66.997 35.3,61.004 37.543,55.852L39.855,50.543C41.359,50.742 42.875,50.852 44.39,50.86C50.953,50.863 57.382,49.028 62.952,45.563L54.386,65.231C53.097,68.824 52.901,72.719 53.827,76.422C54.757,80.125 56.765,83.469 59.597,86.027L59.597,86.027Z" style="fill-rule:nonzero;"/>
        </g>
        <g transform="matrix(1,0,0,1,5,10)">
            <path d="M49.676,19.516C48.707,19.516 47.836,20.098 47.465,20.993C47.094,21.887 47.297,22.918 47.985,23.602C48.668,24.29 49.699,24.493 50.594,24.122C51.489,23.75 52.071,22.879 52.071,21.911C52.071,21.274 51.821,20.665 51.371,20.215C50.922,19.766 50.313,19.516 49.676,19.516L49.676,19.516Z" style="fill-rule:nonzero;"/>
        </g>
        <g transform="matrix(1,0,0,1,5,10)">
            <path d="M62.906,24.305C63.875,24.305 64.75,23.719 65.121,22.825C65.492,21.93 65.285,20.903 64.601,20.215C63.914,19.532 62.886,19.324 61.992,19.696C61.097,20.067 60.511,20.942 60.511,21.91C60.511,22.543 60.765,23.153 61.214,23.602C61.664,24.051 62.273,24.305 62.906,24.305L62.906,24.305Z" style="fill-rule:nonzero;"/>
        </g>
    </g>
</svg>
