<?xml version="1.0" encoding="UTF-8" standalone="no"?>
<!DOCTYPE svg PUBLIC "-//W3C//DTD SVG 1.1//EN" "http://www.w3.org/Graphics/SVG/1.1/DTD/svg11.dtd">
<svg width="100%" height="100%" viewBox="0 0 1333 1000" version="1.1" xmlns="http://www.w3.org/2000/svg" xmlns:xlink="http://www.w3.org/1999/xlink" xml:space="preserve" xmlns:serif="http://www.serif.com/" style="fill-rule:evenodd;clip-rule:evenodd;stroke-linejoin:round;stroke-miterlimit:2;">
    <g transform="matrix(6.828485,0,0,6.828485,325.07576,222.124703)">
        <path d="M85,78.6L85,28.8L50,12.5L15,28.8L15,78.5L50,87.4L85,78.6ZM50,20.6L78.6,33.3L78.6,73.3L50,79.7L50,20.6Z" style="fill-rule:nonzero;"/>
    </g>
    <g transform="matrix(9.842639,0,0,9.842639,-4137.987231,-1461.920447)">
        <path d="M447.921,163.511C448.022,163.511 448.147,163.507 448.296,163.501C448.445,163.494 448.557,163.507 448.632,163.541C448.686,163.568 448.728,163.602 448.759,163.643C448.789,163.683 448.821,163.727 448.855,163.775C448.896,163.843 448.937,163.91 448.977,163.978C449.018,164.046 449.062,164.114 449.109,164.181C449.299,164.479 449.487,164.774 449.673,165.065C449.859,165.356 450.044,165.651 450.227,165.949C450.295,166.057 450.361,166.162 450.425,166.264C450.489,166.366 450.555,166.467 450.623,166.569C450.65,166.616 450.679,166.662 450.709,166.706C450.74,166.75 450.782,166.779 450.836,166.792C450.891,166.806 450.936,166.794 450.974,166.757C451.011,166.72 451.036,166.687 451.05,166.66C451.118,166.565 451.18,166.467 451.238,166.366C451.295,166.264 451.355,166.166 451.416,166.071C451.598,165.78 451.778,165.489 451.954,165.197C452.13,164.906 452.31,164.618 452.492,164.334C452.547,164.246 452.599,164.159 452.65,164.075C452.701,163.99 452.753,163.907 452.807,163.826C452.835,163.778 452.862,163.734 452.889,163.694C452.916,163.653 452.95,163.616 452.99,163.582C453.051,163.534 453.138,163.511 453.249,163.511L453.59,163.511C453.644,163.511 453.698,163.512 453.752,163.516C453.806,163.519 453.851,163.534 453.884,163.562C453.932,163.595 453.944,163.645 453.92,163.709C453.896,163.773 453.874,163.819 453.854,163.846C453.8,163.927 453.749,164.007 453.702,164.085C453.654,164.163 453.603,164.239 453.549,164.313C453.515,164.361 453.485,164.408 453.458,164.456C453.431,164.503 453.4,164.554 453.366,164.608C453.129,164.953 452.899,165.302 452.675,165.654C452.452,166.007 452.228,166.362 452.005,166.721C451.93,166.83 451.859,166.936 451.791,167.041C451.724,167.146 451.653,167.256 451.578,167.371C451.531,167.446 451.485,167.515 451.441,167.58C451.397,167.644 451.358,167.724 451.324,167.819C451.311,167.859 451.304,167.905 451.304,167.956L451.304,169.972C451.304,170.027 451.307,170.084 451.314,170.145C451.321,170.206 451.317,170.264 451.304,170.318L451.304,170.491C451.283,170.612 451.236,170.69 451.162,170.724C451.141,170.738 451.121,170.743 451.101,170.739C451.08,170.736 451.057,170.738 451.029,170.745C451.002,170.751 450.974,170.753 450.943,170.75C450.913,170.746 450.88,170.745 450.847,170.745L450.603,170.745C450.521,170.745 450.464,170.721 450.43,170.673C450.403,170.646 450.384,170.601 450.374,170.536C450.364,170.472 450.357,170.404 450.354,170.333C450.35,170.262 450.35,170.189 450.354,170.115C450.357,170.04 450.359,169.972 450.359,169.911L450.359,168.108C450.359,168.078 450.356,168.049 450.349,168.022L450.349,167.89C450.315,167.774 450.273,167.678 450.222,167.6C450.171,167.522 450.118,167.439 450.064,167.351L449.668,166.742C449.438,166.396 449.214,166.052 448.997,165.71C448.781,165.368 448.557,165.025 448.327,164.679C448.239,164.544 448.153,164.413 448.068,164.288C447.983,164.163 447.897,164.032 447.809,163.897C447.761,163.836 447.727,163.771 447.707,163.704C447.694,163.656 447.697,163.622 447.717,163.602C447.724,163.568 447.743,163.548 447.773,163.541C447.804,163.534 447.836,163.524 447.87,163.511C447.877,163.511 447.885,163.512 447.895,163.516C447.905,163.519 447.914,163.518 447.921,163.511Z" style="fill:rgb(51,51,51);fill-rule:nonzero;"/>
        <path d="M459.543,167.9C459.557,167.94 459.564,168.003 459.564,168.088C459.564,168.172 459.56,168.232 459.554,168.266L459.554,168.367C459.547,168.421 459.542,168.47 459.538,168.514C459.535,168.558 459.53,168.608 459.523,168.662C459.51,168.702 459.501,168.743 459.498,168.784C459.494,168.824 459.486,168.865 459.472,168.906C459.445,168.994 459.422,169.082 459.401,169.17C459.381,169.258 459.354,169.339 459.32,169.414C459.178,169.739 458.988,170.011 458.751,170.231C458.514,170.452 458.223,170.619 457.877,170.734C457.803,170.761 457.723,170.782 457.638,170.795C457.554,170.809 457.467,170.822 457.379,170.836C457.339,170.843 457.296,170.848 457.252,170.851C457.208,170.855 457.166,170.856 457.125,170.856C457.098,170.863 457.059,170.866 457.009,170.866C456.958,170.866 456.922,170.863 456.902,170.856C456.875,170.85 456.848,170.848 456.821,170.851C456.793,170.855 456.77,170.853 456.749,170.846L456.689,170.846L456.445,170.816C456.35,170.789 456.258,170.761 456.17,170.734C456.082,170.707 455.998,170.677 455.916,170.643C455.612,170.507 455.361,170.331 455.165,170.115C454.968,169.898 454.806,169.634 454.677,169.322C454.643,169.254 454.618,169.187 454.601,169.119C454.584,169.051 454.568,168.98 454.555,168.906C454.541,168.879 454.536,168.857 454.54,168.84C454.543,168.823 454.541,168.801 454.535,168.774C454.521,168.719 454.513,168.663 454.509,168.606C454.506,168.548 454.497,168.492 454.484,168.438L454.484,168.352C454.484,168.328 454.48,168.299 454.474,168.266C454.467,168.232 454.463,168.172 454.463,168.088C454.463,168.003 454.47,167.94 454.484,167.9C454.497,167.852 454.501,167.805 454.494,167.758C454.487,167.71 454.491,167.663 454.504,167.615C454.511,167.581 454.516,167.553 454.519,167.529C454.523,167.505 454.528,167.476 454.535,167.443C454.555,167.361 454.574,167.28 454.59,167.199C454.607,167.117 454.633,167.04 454.667,166.965C454.768,166.714 454.892,166.489 455.038,166.289C455.183,166.09 455.361,165.922 455.571,165.787C455.652,165.732 455.737,165.687 455.825,165.649C455.913,165.612 456.004,165.573 456.099,165.533C456.181,165.499 456.269,165.477 456.363,165.467C456.458,165.456 456.553,165.438 456.648,165.411C456.695,165.411 456.741,165.409 456.785,165.406C456.829,165.402 456.871,165.397 456.912,165.39C457.515,165.384 458.016,165.509 458.416,165.766C458.815,166.024 459.103,166.359 459.279,166.772C459.313,166.84 459.34,166.908 459.361,166.975C459.381,167.043 459.405,167.114 459.432,167.189C459.452,167.263 459.469,167.343 459.482,167.427C459.496,167.512 459.513,167.598 459.533,167.686C459.54,167.72 459.542,167.756 459.538,167.793C459.535,167.83 459.537,167.866 459.543,167.9ZM458.639,168.479C458.653,168.431 458.658,168.377 458.654,168.316C458.651,168.255 458.649,168.198 458.649,168.144C458.649,167.879 458.626,167.656 458.578,167.473C458.558,167.419 458.541,167.365 458.527,167.311C458.514,167.256 458.497,167.206 458.477,167.158C458.287,166.718 457.986,166.413 457.572,166.244C457.525,166.223 457.474,166.208 457.42,166.198C457.366,166.188 457.312,166.176 457.257,166.162C457.203,166.149 457.146,166.142 457.085,166.142L456.902,166.142L456.719,166.173C456.651,166.186 456.589,166.201 456.531,166.218C456.473,166.235 456.418,166.257 456.363,166.284C456.316,166.298 456.272,166.318 456.231,166.345C456.191,166.372 456.153,166.4 456.12,166.427C455.957,166.542 455.825,166.681 455.723,166.843C455.622,167.006 455.534,167.195 455.459,167.412C455.439,167.48 455.425,167.549 455.419,167.62C455.412,167.692 455.402,167.764 455.388,167.839C455.381,167.866 455.378,167.91 455.378,167.971C455.371,167.991 455.369,168.015 455.373,168.042C455.376,168.069 455.378,168.1 455.378,168.133L455.378,168.337C455.378,168.404 455.385,168.465 455.398,168.52L455.419,168.641C455.432,168.709 455.444,168.775 455.454,168.84C455.464,168.904 455.483,168.963 455.51,169.017C455.578,169.18 455.657,169.332 455.749,169.475C455.84,169.617 455.954,169.735 456.089,169.83C456.123,169.85 456.153,169.867 456.181,169.881C456.208,169.895 456.238,169.911 456.272,169.932C456.326,169.966 456.385,169.994 456.45,170.018C456.514,170.042 456.584,170.064 456.658,170.084C456.692,170.098 456.724,170.103 456.755,170.099C456.785,170.096 456.817,170.098 456.851,170.104C456.871,170.111 456.914,170.118 456.978,170.125C457.042,170.132 457.092,170.128 457.125,170.115C457.152,170.108 457.18,170.106 457.207,170.11C457.234,170.113 457.261,170.108 457.288,170.094C457.342,170.081 457.396,170.069 457.45,170.059C457.505,170.049 457.555,170.033 457.603,170.013C457.833,169.918 458.019,169.786 458.162,169.617C458.304,169.447 458.422,169.248 458.517,169.017C458.551,168.936 458.573,168.85 458.583,168.758C458.593,168.667 458.612,168.574 458.639,168.479Z" style="fill:rgb(51,51,51);fill-rule:nonzero;"/>
        <path d="M460.864,165.512L461.159,165.512C461.26,165.512 461.332,165.539 461.372,165.594C461.406,165.648 461.425,165.715 461.428,165.797C461.431,165.878 461.433,165.959 461.433,166.041L461.433,169.002C461.433,169.161 461.45,169.298 461.484,169.414C461.592,169.718 461.796,169.932 462.094,170.054C462.243,170.115 462.422,170.137 462.632,170.12C462.842,170.103 463.011,170.067 463.14,170.013C463.364,169.918 463.541,169.798 463.673,169.652C463.805,169.507 463.909,169.315 463.983,169.078C464.004,169.024 464.017,168.97 464.024,168.916C464.031,168.862 464.041,168.804 464.054,168.743C464.061,168.709 464.063,168.679 464.059,168.652C464.056,168.625 464.061,168.594 464.075,168.56L464.075,168.347C464.088,168.293 464.092,168.23 464.085,168.159C464.078,168.088 464.075,168.022 464.075,167.961L464.075,166.091C464.075,166.01 464.073,165.924 464.07,165.832C464.066,165.741 464.082,165.668 464.115,165.614C464.142,165.58 464.175,165.558 464.212,165.548C464.249,165.538 464.295,165.526 464.349,165.512L464.501,165.512C464.583,165.512 464.656,165.516 464.72,165.522C464.784,165.529 464.833,165.56 464.867,165.614C464.901,165.648 464.918,165.697 464.918,165.761L464.918,170.298C464.918,170.379 464.916,170.455 464.913,170.526C464.91,170.597 464.884,170.65 464.837,170.684C464.81,170.704 464.769,170.719 464.715,170.729C464.661,170.739 464.601,170.746 464.537,170.75C464.473,170.753 464.412,170.751 464.354,170.745C464.297,170.738 464.254,170.724 464.227,170.704C464.193,170.677 464.163,170.633 464.136,170.572C464.129,170.545 464.124,170.507 464.12,170.46C464.117,170.413 464.112,170.367 464.105,170.323C464.098,170.279 464.085,170.243 464.065,170.216C464.044,170.189 464.014,170.179 463.973,170.186C463.919,170.199 463.865,170.238 463.811,170.303C463.756,170.367 463.706,170.416 463.658,170.45C463.509,170.558 463.34,170.653 463.15,170.734C463.076,170.768 462.999,170.79 462.922,170.8C462.844,170.811 462.764,170.826 462.683,170.846C462.649,170.853 462.613,170.853 462.576,170.846C462.539,170.839 462.503,170.843 462.469,170.856C462.402,170.87 462.341,170.87 462.287,170.856L462.185,170.856C462.151,170.843 462.112,170.836 462.068,170.836C462.024,170.836 461.985,170.833 461.951,170.826C461.924,170.812 461.899,170.807 461.875,170.811C461.851,170.814 461.823,170.809 461.789,170.795C461.735,170.782 461.682,170.768 461.631,170.755C461.58,170.741 461.528,170.721 461.474,170.694C461.298,170.619 461.15,170.519 461.032,170.394C460.913,170.269 460.817,170.118 460.742,169.942C460.715,169.881 460.695,169.818 460.681,169.754C460.668,169.69 460.654,169.624 460.641,169.556C460.627,169.515 460.622,169.476 460.625,169.439C460.629,169.402 460.624,169.359 460.61,169.312C460.603,169.298 460.6,169.28 460.6,169.256C460.6,169.232 460.597,169.21 460.59,169.19L460.59,169.089C460.583,169.061 460.581,169.029 460.585,168.992C460.588,168.955 460.59,168.919 460.59,168.885L460.59,165.776C460.59,165.715 460.603,165.665 460.631,165.624C460.658,165.577 460.708,165.543 460.783,165.522C460.796,165.516 460.81,165.514 460.824,165.517C460.837,165.521 460.851,165.519 460.864,165.512Z" style="fill:rgb(51,51,51);fill-rule:nonzero;"/>
        <path d="M469.338,163.521C469.432,163.521 469.532,163.523 469.637,163.526C469.742,163.529 469.815,163.558 469.856,163.612C469.89,163.66 469.907,163.729 469.907,163.821L469.907,165.472C469.907,165.499 469.905,165.526 469.901,165.553C469.898,165.58 469.9,165.607 469.907,165.634C469.913,165.654 469.915,165.678 469.912,165.705C469.908,165.732 469.91,165.756 469.917,165.776C469.93,165.831 469.939,165.881 469.942,165.929C469.945,165.976 469.981,166 470.049,166C470.062,165.986 470.078,165.978 470.094,165.974C470.111,165.971 470.127,165.963 470.14,165.949C470.181,165.922 470.218,165.893 470.252,165.863C470.286,165.832 470.323,165.8 470.364,165.766C470.438,165.712 470.521,165.663 470.613,165.619C470.704,165.575 470.797,165.536 470.892,165.502C470.946,165.489 471.004,165.477 471.065,165.467C471.126,165.456 471.183,165.444 471.237,165.431C471.265,165.417 471.292,165.412 471.319,165.416C471.346,165.419 471.376,165.417 471.41,165.411C471.444,165.397 471.5,165.39 471.578,165.39C471.656,165.39 471.712,165.397 471.745,165.411L471.842,165.411C471.872,165.411 471.905,165.414 471.938,165.421C471.993,165.434 472.047,165.444 472.101,165.451C472.155,165.458 472.209,165.468 472.264,165.482C472.297,165.495 472.325,165.504 472.345,165.507C472.365,165.511 472.392,165.519 472.426,165.533C472.501,165.566 472.572,165.602 472.64,165.639C472.707,165.676 472.775,165.719 472.843,165.766C472.91,165.827 472.975,165.898 473.036,165.98C473.076,166.041 473.114,166.101 473.148,166.162C473.181,166.223 473.215,166.291 473.249,166.366C473.269,166.413 473.285,166.46 473.295,166.508C473.305,166.555 473.317,166.606 473.33,166.66C473.344,166.694 473.351,166.728 473.351,166.762C473.351,166.796 473.354,166.833 473.361,166.874C473.374,166.908 473.379,166.941 473.376,166.975C473.373,167.009 473.378,167.043 473.391,167.077L473.391,167.178C473.398,167.212 473.4,167.25 473.396,167.29C473.393,167.331 473.391,167.368 473.391,167.402L473.391,169.952C473.391,170.006 473.393,170.072 473.396,170.15C473.4,170.228 473.4,170.303 473.396,170.374C473.393,170.445 473.385,170.511 473.371,170.572C473.357,170.633 473.337,170.673 473.31,170.694C473.263,170.734 473.175,170.755 473.046,170.755L472.787,170.755C472.702,170.755 472.64,170.728 472.599,170.673C472.565,170.626 472.548,170.57 472.548,170.506L472.548,167.94C472.548,167.758 472.55,167.563 472.553,167.356C472.557,167.15 472.535,166.972 472.487,166.823C472.406,166.593 472.27,166.423 472.081,166.315C472.027,166.281 471.969,166.252 471.908,166.228C471.847,166.205 471.779,166.186 471.705,166.173C471.678,166.166 471.637,166.162 471.583,166.162C471.556,166.156 471.524,166.149 471.486,166.142C471.449,166.135 471.414,166.139 471.38,166.152C471.353,166.159 471.326,166.161 471.298,166.157C471.271,166.154 471.241,166.156 471.207,166.162C471.146,166.176 471.083,166.188 471.019,166.198C470.955,166.208 470.895,166.227 470.841,166.254C470.611,166.349 470.428,166.477 470.293,166.64C470.157,166.803 470.052,167.009 469.978,167.26C469.964,167.307 469.954,167.358 469.947,167.412C469.94,167.466 469.93,167.52 469.917,167.575C469.91,167.595 469.908,167.617 469.912,167.641C469.915,167.664 469.913,167.686 469.907,167.707C469.9,167.741 469.9,167.774 469.907,167.808C469.913,167.842 469.913,167.876 469.907,167.91L469.907,169.952C469.907,170.006 469.908,170.069 469.912,170.14C469.915,170.211 469.915,170.281 469.912,170.348C469.908,170.416 469.903,170.48 469.896,170.541C469.89,170.602 469.876,170.646 469.856,170.673C469.829,170.707 469.796,170.726 469.759,170.729C469.722,170.733 469.68,170.741 469.632,170.755L469.49,170.755C469.415,170.755 469.344,170.753 469.277,170.75C469.209,170.746 469.158,170.724 469.124,170.684C469.09,170.629 469.072,170.563 469.068,170.485C469.065,170.408 469.063,170.325 469.063,170.237L469.063,164.07C469.063,163.995 469.062,163.915 469.058,163.831C469.055,163.746 469.07,163.68 469.104,163.633C469.131,163.585 469.182,163.551 469.256,163.531C469.27,163.524 469.283,163.523 469.297,163.526C469.31,163.529 469.324,163.528 469.338,163.521Z" style="fill:rgb(51,51,51);fill-rule:nonzero;"/>
        <path d="M479.335,170.369C479.355,170.477 479.345,170.567 479.304,170.638C479.264,170.709 479.21,170.761 479.142,170.795C479.108,170.809 479.072,170.816 479.035,170.816C478.998,170.816 478.959,170.822 478.918,170.836C478.769,170.87 478.622,170.861 478.476,170.811C478.331,170.76 478.231,170.697 478.177,170.623C478.143,170.575 478.112,170.519 478.085,170.455C478.058,170.391 478.024,170.338 477.984,170.298C477.97,170.284 477.955,170.27 477.938,170.257C477.921,170.243 477.899,170.24 477.872,170.247C477.797,170.267 477.728,170.304 477.664,170.358C477.599,170.413 477.537,170.46 477.476,170.501C477.388,170.555 477.293,170.604 477.191,170.648C477.09,170.692 476.981,170.731 476.866,170.765C476.798,170.785 476.725,170.799 476.648,170.806C476.57,170.812 476.493,170.822 476.419,170.836C476.385,170.843 476.356,170.846 476.333,170.846L476.256,170.846C476.182,170.86 476.111,170.86 476.043,170.846L475.952,170.846C475.918,170.839 475.884,170.836 475.85,170.836C475.816,170.836 475.786,170.829 475.759,170.816C475.732,170.809 475.709,170.807 475.693,170.811C475.676,170.814 475.657,170.812 475.637,170.806C475.582,170.792 475.528,170.78 475.474,170.77C475.42,170.76 475.369,170.745 475.322,170.724C475.119,170.636 474.954,170.536 474.829,170.425C474.704,170.313 474.6,170.155 474.519,169.952C474.458,169.803 474.428,169.624 474.428,169.414L474.428,169.2C474.434,169.166 474.44,169.131 474.443,169.094C474.446,169.056 474.451,169.017 474.458,168.977C474.485,168.902 474.512,168.828 474.539,168.753C474.567,168.679 474.6,168.611 474.641,168.55C474.763,168.354 474.929,168.208 475.139,168.113C475.349,168.018 475.579,167.934 475.83,167.859C475.925,167.832 476.023,167.812 476.124,167.798C476.226,167.785 476.328,167.768 476.429,167.747C476.477,167.734 476.522,167.727 476.566,167.727C476.61,167.727 476.659,167.72 476.714,167.707C476.761,167.693 476.808,167.685 476.856,167.681C476.903,167.678 476.954,167.67 477.008,167.656C477.178,167.615 477.337,167.58 477.486,167.549C477.635,167.519 477.753,167.443 477.841,167.321C477.882,167.266 477.916,167.197 477.943,167.112C477.97,167.028 477.97,166.935 477.943,166.833C477.902,166.67 477.843,166.542 477.765,166.447C477.687,166.352 477.577,166.278 477.435,166.223C477.354,166.19 477.257,166.166 477.145,166.152C477.034,166.139 476.917,166.132 476.795,166.132C476.673,166.132 476.554,166.139 476.439,166.152C476.324,166.166 476.226,166.186 476.145,166.213C476.03,166.254 475.918,166.311 475.809,166.386C475.755,166.427 475.706,166.479 475.662,166.543C475.618,166.608 475.579,166.677 475.545,166.752C475.525,166.806 475.506,166.863 475.489,166.924C475.472,166.985 475.44,167.033 475.393,167.067C475.366,167.087 475.32,167.102 475.256,167.112C475.191,167.123 475.125,167.128 475.058,167.128C474.99,167.128 474.924,167.123 474.859,167.112C474.795,167.102 474.749,167.087 474.722,167.067C474.695,167.046 474.675,167.012 474.661,166.965C474.648,166.918 474.648,166.867 474.661,166.813C474.682,166.725 474.704,166.642 474.727,166.564C474.751,166.486 474.78,166.41 474.814,166.335C474.942,166.098 475.105,165.914 475.301,165.781C475.498,165.649 475.742,165.543 476.033,165.461C476.101,165.448 476.17,165.438 476.241,165.431C476.312,165.424 476.385,165.414 476.46,165.4C476.487,165.394 476.531,165.392 476.592,165.395C476.653,165.399 476.69,165.394 476.703,165.38C477.178,165.373 477.591,165.428 477.943,165.543C478.295,165.658 478.542,165.878 478.685,166.203C478.746,166.339 478.781,166.496 478.791,166.676C478.801,166.855 478.807,167.043 478.807,167.239L478.807,169.485C478.807,169.58 478.81,169.671 478.817,169.759C478.823,169.847 478.844,169.918 478.878,169.972C478.912,170.02 478.956,170.054 479.01,170.074C479.071,170.101 479.128,170.12 479.182,170.13C479.237,170.14 479.277,170.172 479.304,170.226C479.318,170.247 479.325,170.267 479.325,170.287C479.325,170.308 479.328,170.335 479.335,170.369ZM477.882,169.241C477.923,169.146 477.945,169.036 477.948,168.911C477.951,168.785 477.953,168.655 477.953,168.52C477.953,168.445 477.95,168.377 477.943,168.316C477.936,168.255 477.909,168.208 477.862,168.174C477.841,168.161 477.794,168.154 477.719,168.154C477.706,168.167 477.682,168.174 477.648,168.174C477.614,168.174 477.584,168.181 477.557,168.194C477.503,168.208 477.442,168.222 477.374,168.235C477.306,168.249 477.239,168.262 477.171,168.276C477.15,168.276 477.128,168.277 477.105,168.281C477.081,168.284 477.056,168.286 477.029,168.286C476.927,168.313 476.817,168.328 476.698,168.332C476.58,168.335 476.47,168.35 476.368,168.377C476.314,168.391 476.265,168.403 476.221,168.413C476.177,168.423 476.128,168.435 476.074,168.448C475.965,168.482 475.864,168.525 475.769,168.575C475.674,168.626 475.593,168.689 475.525,168.763C475.457,168.838 475.406,168.928 475.373,169.033C475.339,169.138 475.325,169.265 475.332,169.414C475.332,169.481 475.344,169.544 475.367,169.602C475.391,169.659 475.42,169.712 475.454,169.759C475.508,169.834 475.579,169.896 475.667,169.947C475.755,169.998 475.85,170.04 475.952,170.074C475.985,170.081 476.019,170.084 476.053,170.084C476.087,170.084 476.121,170.088 476.155,170.094C476.202,170.108 476.262,170.116 476.333,170.12C476.404,170.123 476.463,170.118 476.51,170.104C476.551,170.091 476.592,170.086 476.632,170.089C476.673,170.093 476.714,170.088 476.754,170.074C476.808,170.06 476.861,170.05 476.912,170.044C476.963,170.037 477.012,170.023 477.059,170.003C477.255,169.922 477.423,169.823 477.562,169.708C477.701,169.593 477.808,169.437 477.882,169.241Z" style="fill:rgb(51,51,51);fill-rule:nonzero;"/>
        <path d="M479.975,165.512L480.3,165.512C480.415,165.512 480.503,165.533 480.564,165.573C480.612,165.607 480.644,165.649 480.661,165.7C480.678,165.751 480.696,165.803 480.717,165.858C480.757,165.952 480.791,166.047 480.818,166.142C480.845,166.237 480.876,166.332 480.91,166.427C481.045,166.792 481.17,167.16 481.286,167.529C481.401,167.898 481.526,168.266 481.661,168.631C481.709,168.753 481.75,168.877 481.783,169.002C481.817,169.127 481.861,169.251 481.915,169.373C481.929,169.42 481.946,169.471 481.966,169.525C481.987,169.58 482.02,169.613 482.068,169.627C482.122,169.641 482.164,169.617 482.195,169.556C482.225,169.495 482.247,169.447 482.261,169.414C482.315,169.285 482.361,169.155 482.398,169.022C482.435,168.89 482.478,168.757 482.525,168.621C482.613,168.364 482.698,168.108 482.779,167.854C482.86,167.6 482.945,167.344 483.033,167.087C483.067,166.972 483.101,166.858 483.135,166.747C483.169,166.635 483.209,166.525 483.257,166.416C483.29,166.322 483.321,166.227 483.348,166.132C483.375,166.037 483.406,165.942 483.439,165.848C483.453,165.8 483.47,165.753 483.49,165.705C483.511,165.658 483.538,165.617 483.572,165.583C483.626,165.549 483.687,165.529 483.754,165.522C483.822,165.516 483.903,165.512 483.998,165.512C484.046,165.512 484.09,165.514 484.13,165.517C484.171,165.521 484.208,165.529 484.242,165.543C484.303,165.57 484.335,165.614 484.339,165.675C484.342,165.736 484.33,165.797 484.303,165.858C484.262,165.973 484.222,166.091 484.181,166.213C484.14,166.335 484.093,166.454 484.039,166.569C484.025,166.603 484.015,166.635 484.008,166.665C484.002,166.696 483.991,166.728 483.978,166.762C483.924,166.877 483.88,166.996 483.846,167.117C483.812,167.239 483.768,167.361 483.714,167.483C483.68,167.571 483.648,167.661 483.617,167.752C483.587,167.844 483.551,167.934 483.511,168.022C483.395,168.299 483.292,168.581 483.201,168.865C483.109,169.149 483.006,169.431 482.891,169.708C482.85,169.817 482.813,169.925 482.779,170.033C482.745,170.142 482.705,170.25 482.657,170.358C482.623,170.433 482.594,170.502 482.571,170.567C482.547,170.631 482.498,170.68 482.423,170.714C482.383,170.734 482.337,170.745 482.286,170.745L482.129,170.745C482.02,170.745 481.915,170.743 481.814,170.739C481.712,170.736 481.638,170.704 481.59,170.643C481.543,170.589 481.509,170.523 481.489,170.445C481.468,170.367 481.441,170.291 481.407,170.216C481.367,170.121 481.328,170.022 481.291,169.917C481.253,169.812 481.218,169.712 481.184,169.617C481.17,169.583 481.16,169.554 481.153,169.53C481.147,169.507 481.137,169.478 481.123,169.444C480.988,169.119 480.864,168.79 480.752,168.459C480.64,168.127 480.517,167.798 480.381,167.473C480.341,167.365 480.302,167.258 480.264,167.153C480.227,167.048 480.188,166.941 480.148,166.833C480.134,166.799 480.122,166.764 480.112,166.726C480.102,166.689 480.09,166.654 480.077,166.62C480.022,166.505 479.977,166.389 479.939,166.274C479.902,166.159 479.86,166.044 479.812,165.929C479.799,165.888 479.782,165.834 479.762,165.766C479.741,165.698 479.745,165.641 479.772,165.594C479.806,165.56 479.846,165.536 479.894,165.522C479.941,165.522 479.968,165.519 479.975,165.512Z" style="fill:rgb(51,51,51);fill-rule:nonzero;"/>
        <path d="M489.779,167.92C489.793,167.988 489.794,168.064 489.784,168.149C489.774,168.233 489.752,168.293 489.718,168.327C489.684,168.354 489.635,168.372 489.571,168.382C489.507,168.393 489.434,168.398 489.353,168.398C489.271,168.398 489.19,168.396 489.109,168.393C489.027,168.389 488.956,168.387 488.895,168.387L486.294,168.387C486.24,168.387 486.186,168.389 486.132,168.393C486.078,168.396 486.034,168.408 486,168.428C485.973,168.442 485.946,168.469 485.918,168.509C485.905,168.53 485.891,168.558 485.878,168.596C485.864,168.633 485.864,168.669 485.878,168.702C485.885,168.736 485.888,168.767 485.888,168.794C485.888,168.821 485.891,168.848 485.898,168.875C485.912,168.929 485.925,168.985 485.939,169.043C485.952,169.1 485.973,169.156 486,169.21C486.156,169.576 486.413,169.837 486.772,169.993C486.813,170.013 486.857,170.03 486.904,170.044C486.951,170.057 486.999,170.071 487.046,170.084C487.067,170.091 487.1,170.094 487.148,170.094C487.243,170.121 487.368,170.135 487.524,170.135C487.68,170.135 487.805,170.121 487.9,170.094C487.994,170.067 488.081,170.038 488.159,170.008C488.237,169.977 488.309,169.939 488.377,169.891C488.452,169.844 488.516,169.788 488.57,169.723C488.624,169.659 488.672,169.59 488.712,169.515C488.753,169.447 488.789,169.376 488.819,169.302C488.85,169.227 488.902,169.173 488.977,169.139C489.004,169.126 489.048,169.116 489.109,169.109C489.17,169.102 489.231,169.1 489.292,169.104C489.353,169.107 489.41,169.112 489.464,169.119C489.518,169.126 489.556,169.139 489.576,169.16C489.644,169.207 489.661,169.285 489.627,169.393C489.573,169.576 489.502,169.739 489.413,169.881C489.278,170.098 489.124,170.276 488.951,170.414C488.778,170.553 488.56,170.667 488.296,170.755C488.228,170.782 488.16,170.8 488.093,170.811C488.025,170.821 487.954,170.833 487.879,170.846C487.845,170.853 487.813,170.856 487.783,170.856C487.752,170.856 487.72,170.86 487.686,170.866L487.585,170.866C487.551,170.873 487.512,170.877 487.468,170.877C487.424,170.877 487.388,170.873 487.361,170.866L487.27,170.866C487.236,170.86 487.205,170.856 487.178,170.856C487.151,170.856 487.124,170.853 487.097,170.846C487.063,170.839 487.026,170.834 486.985,170.831C486.945,170.828 486.907,170.822 486.873,170.816C486.813,170.802 486.752,170.787 486.691,170.77C486.63,170.753 486.572,170.734 486.518,170.714C486.491,170.701 486.467,170.692 486.447,170.689C486.426,170.685 486.403,170.677 486.376,170.663C486.274,170.616 486.166,170.558 486.051,170.491C485.854,170.362 485.686,170.204 485.548,170.018C485.409,169.832 485.292,169.624 485.197,169.393C485.163,169.319 485.138,169.241 485.121,169.16C485.104,169.078 485.082,168.997 485.055,168.916C485.048,168.889 485.045,168.865 485.045,168.845C485.045,168.824 485.041,168.797 485.035,168.763C485.021,168.709 485.011,168.652 485.004,168.591C484.997,168.53 484.987,168.469 484.974,168.408L484.974,168.266C484.967,168.238 484.962,168.2 484.958,168.149C484.955,168.098 484.957,168.056 484.963,168.022L484.963,167.91C484.977,167.876 484.982,167.841 484.979,167.803C484.975,167.766 484.977,167.73 484.984,167.697C485.011,167.588 485.033,167.48 485.05,167.371C485.067,167.263 485.096,167.162 485.136,167.067C485.17,166.992 485.202,166.916 485.233,166.838C485.263,166.76 485.299,166.684 485.339,166.609C485.488,166.372 485.658,166.168 485.847,165.995C486.037,165.822 486.271,165.678 486.548,165.563C486.63,165.529 486.713,165.504 486.797,165.487C486.882,165.47 486.972,165.451 487.067,165.431C487.1,165.424 487.131,165.419 487.158,165.416C487.185,165.412 487.216,165.411 487.249,165.411C487.263,165.404 487.28,165.404 487.3,165.411C487.321,165.417 487.337,165.414 487.351,165.4C487.635,165.394 487.883,165.422 488.093,165.487C488.303,165.551 488.492,165.638 488.662,165.746C488.696,165.759 488.723,165.778 488.743,165.802C488.763,165.825 488.787,165.844 488.814,165.858C488.868,165.898 488.924,165.946 488.982,166C489.039,166.054 489.088,166.108 489.129,166.162C489.237,166.305 489.329,166.44 489.403,166.569C489.451,166.643 489.488,166.725 489.515,166.813C489.542,166.901 489.573,166.989 489.607,167.077C489.64,167.165 489.666,167.256 489.683,167.351C489.7,167.446 489.722,167.541 489.749,167.636C489.756,167.683 489.761,167.73 489.764,167.778C489.767,167.825 489.772,167.873 489.779,167.92ZM488.794,167.575C488.814,167.548 488.831,167.512 488.845,167.468C488.858,167.424 488.858,167.378 488.845,167.331C488.804,167.182 488.746,167.043 488.672,166.914C488.577,166.759 488.472,166.626 488.357,166.518C488.242,166.41 488.093,166.318 487.91,166.244C487.862,166.23 487.815,166.218 487.768,166.208C487.72,166.198 487.669,166.186 487.615,166.173C487.561,166.159 487.503,166.152 487.442,166.152L487.27,166.152C487.249,166.166 487.226,166.171 487.199,166.168C487.172,166.164 487.148,166.166 487.127,166.173C487.073,166.186 487.021,166.198 486.97,166.208C486.919,166.218 486.87,166.23 486.823,166.244C486.626,166.325 486.469,166.427 486.35,166.549C486.232,166.67 486.125,166.823 486.03,167.006C486.01,167.04 485.99,167.082 485.969,167.133C485.949,167.184 485.932,167.239 485.918,167.3C485.905,167.361 485.902,167.419 485.908,167.473C485.915,167.527 485.939,167.568 485.979,167.595C486.034,167.636 486.127,167.654 486.259,167.651C486.391,167.647 486.504,167.646 486.599,167.646L488.143,167.646C488.245,167.646 488.367,167.647 488.509,167.651C488.651,167.654 488.746,167.629 488.794,167.575Z" style="fill:rgb(51,51,51);fill-rule:nonzero;"/>
        <path d="M498.151,170.369C498.171,170.477 498.161,170.567 498.12,170.638C498.08,170.709 498.026,170.761 497.958,170.795C497.924,170.809 497.888,170.816 497.851,170.816C497.814,170.816 497.775,170.822 497.734,170.836C497.585,170.87 497.438,170.861 497.292,170.811C497.147,170.76 497.047,170.697 496.993,170.623C496.959,170.575 496.928,170.519 496.901,170.455C496.874,170.391 496.84,170.338 496.8,170.298C496.786,170.284 496.771,170.27 496.754,170.257C496.737,170.243 496.715,170.24 496.688,170.247C496.613,170.267 496.544,170.304 496.48,170.358C496.415,170.413 496.353,170.46 496.292,170.501C496.204,170.555 496.109,170.604 496.007,170.648C495.906,170.692 495.797,170.731 495.682,170.765C495.614,170.785 495.542,170.799 495.464,170.806C495.386,170.812 495.31,170.822 495.235,170.836C495.201,170.843 495.172,170.846 495.149,170.846L495.073,170.846C494.998,170.86 494.927,170.86 494.859,170.846L494.768,170.846C494.734,170.839 494.7,170.836 494.666,170.836C494.632,170.836 494.602,170.829 494.575,170.816C494.548,170.809 494.526,170.807 494.509,170.811C494.492,170.814 494.473,170.812 494.453,170.806C494.399,170.792 494.344,170.78 494.29,170.77C494.236,170.76 494.185,170.745 494.138,170.724C493.935,170.636 493.77,170.536 493.645,170.425C493.52,170.313 493.416,170.155 493.335,169.952C493.274,169.803 493.244,169.624 493.244,169.414L493.244,169.2C493.251,169.166 493.256,169.131 493.259,169.094C493.262,169.056 493.267,169.017 493.274,168.977C493.301,168.902 493.328,168.828 493.356,168.753C493.383,168.679 493.416,168.611 493.457,168.55C493.579,168.354 493.745,168.208 493.955,168.113C494.165,168.018 494.395,167.934 494.646,167.859C494.741,167.832 494.839,167.812 494.94,167.798C495.042,167.785 495.144,167.768 495.245,167.747C495.293,167.734 495.338,167.727 495.382,167.727C495.426,167.727 495.476,167.72 495.53,167.707C495.577,167.693 495.625,167.685 495.672,167.681C495.719,167.678 495.77,167.67 495.824,167.656C495.994,167.615 496.153,167.58 496.302,167.549C496.451,167.519 496.569,167.443 496.657,167.321C496.698,167.266 496.732,167.197 496.759,167.112C496.786,167.028 496.786,166.935 496.759,166.833C496.718,166.67 496.659,166.542 496.581,166.447C496.503,166.352 496.393,166.278 496.251,166.223C496.17,166.19 496.073,166.166 495.962,166.152C495.85,166.139 495.733,166.132 495.611,166.132C495.489,166.132 495.371,166.139 495.255,166.152C495.14,166.166 495.042,166.186 494.961,166.213C494.846,166.254 494.734,166.311 494.625,166.386C494.571,166.427 494.522,166.479 494.478,166.543C494.434,166.608 494.395,166.677 494.361,166.752C494.341,166.806 494.322,166.863 494.305,166.924C494.289,166.985 494.256,167.033 494.209,167.067C494.182,167.087 494.136,167.102 494.072,167.112C494.007,167.123 493.941,167.128 493.874,167.128C493.806,167.128 493.74,167.123 493.676,167.112C493.611,167.102 493.565,167.087 493.538,167.067C493.511,167.046 493.491,167.012 493.477,166.965C493.464,166.918 493.464,166.867 493.477,166.813C493.498,166.725 493.52,166.642 493.543,166.564C493.567,166.486 493.596,166.41 493.63,166.335C493.759,166.098 493.921,165.914 494.117,165.781C494.314,165.649 494.558,165.543 494.849,165.461C494.917,165.448 494.986,165.438 495.057,165.431C495.128,165.424 495.201,165.414 495.276,165.4C495.303,165.394 495.347,165.392 495.408,165.395C495.469,165.399 495.506,165.394 495.52,165.38C495.994,165.373 496.407,165.428 496.759,165.543C497.111,165.658 497.358,165.878 497.501,166.203C497.562,166.339 497.597,166.496 497.607,166.676C497.618,166.855 497.623,167.043 497.623,167.239L497.623,169.485C497.623,169.58 497.626,169.671 497.633,169.759C497.64,169.847 497.66,169.918 497.694,169.972C497.728,170.02 497.772,170.054 497.826,170.074C497.887,170.101 497.944,170.12 497.999,170.13C498.053,170.14 498.093,170.172 498.12,170.226C498.134,170.247 498.141,170.267 498.141,170.287C498.141,170.308 498.144,170.335 498.151,170.369ZM496.698,169.241C496.739,169.146 496.761,169.036 496.764,168.911C496.768,168.785 496.769,168.655 496.769,168.52C496.769,168.445 496.766,168.377 496.759,168.316C496.752,168.255 496.725,168.208 496.678,168.174C496.657,168.161 496.61,168.154 496.536,168.154C496.522,168.167 496.498,168.174 496.464,168.174C496.431,168.174 496.4,168.181 496.373,168.194C496.319,168.208 496.258,168.222 496.19,168.235C496.122,168.249 496.055,168.262 495.987,168.276C495.967,168.276 495.945,168.277 495.921,168.281C495.897,168.284 495.872,168.286 495.845,168.286C495.743,168.313 495.633,168.328 495.514,168.332C495.396,168.335 495.286,168.35 495.184,168.377C495.13,168.391 495.081,168.403 495.037,168.413C494.993,168.423 494.944,168.435 494.89,168.448C494.781,168.482 494.68,168.525 494.585,168.575C494.49,168.626 494.409,168.689 494.341,168.763C494.273,168.838 494.222,168.928 494.189,169.033C494.155,169.138 494.141,169.265 494.148,169.414C494.148,169.481 494.16,169.544 494.184,169.602C494.207,169.659 494.236,169.712 494.27,169.759C494.324,169.834 494.395,169.896 494.483,169.947C494.571,169.998 494.666,170.04 494.768,170.074C494.802,170.081 494.835,170.084 494.869,170.084C494.903,170.084 494.937,170.088 494.971,170.094C495.018,170.108 495.078,170.116 495.149,170.12C495.22,170.123 495.279,170.118 495.327,170.104C495.367,170.091 495.408,170.086 495.448,170.089C495.489,170.093 495.53,170.088 495.57,170.074C495.625,170.06 495.677,170.05 495.728,170.044C495.779,170.037 495.828,170.023 495.875,170.003C496.072,169.922 496.239,169.823 496.378,169.708C496.517,169.593 496.624,169.437 496.698,169.241Z" style="fill:rgb(51,51,51);fill-rule:nonzero;"/>
        <path d="M502.083,163.521C502.178,163.521 502.278,163.523 502.383,163.526C502.488,163.529 502.56,163.558 502.601,163.612C502.635,163.66 502.652,163.729 502.652,163.821L502.652,165.472C502.652,165.499 502.65,165.526 502.647,165.553C502.643,165.58 502.645,165.607 502.652,165.634C502.659,165.654 502.66,165.678 502.657,165.705C502.653,165.732 502.655,165.756 502.662,165.776C502.675,165.831 502.684,165.881 502.687,165.929C502.691,165.976 502.726,166 502.794,166C502.808,165.986 502.823,165.978 502.84,165.974C502.857,165.971 502.872,165.963 502.885,165.949C502.926,165.922 502.963,165.893 502.997,165.863C503.031,165.832 503.068,165.8 503.109,165.766C503.183,165.712 503.266,165.663 503.358,165.619C503.449,165.575 503.542,165.536 503.637,165.502C503.691,165.489 503.749,165.477 503.81,165.467C503.871,165.456 503.929,165.444 503.983,165.431C504.01,165.417 504.037,165.412 504.064,165.416C504.091,165.419 504.122,165.417 504.155,165.411C504.189,165.397 504.245,165.39 504.323,165.39C504.401,165.39 504.457,165.397 504.491,165.411L504.587,165.411C504.618,165.411 504.65,165.414 504.684,165.421C504.738,165.434 504.792,165.444 504.846,165.451C504.901,165.458 504.955,165.468 505.009,165.482C505.043,165.495 505.07,165.504 505.09,165.507C505.11,165.511 505.138,165.519 505.171,165.533C505.246,165.566 505.317,165.602 505.385,165.639C505.453,165.676 505.52,165.719 505.588,165.766C505.656,165.827 505.72,165.898 505.781,165.98C505.822,166.041 505.859,166.101 505.893,166.162C505.927,166.223 505.961,166.291 505.994,166.366C506.015,166.413 506.03,166.46 506.04,166.508C506.05,166.555 506.062,166.606 506.076,166.66C506.089,166.694 506.096,166.728 506.096,166.762C506.096,166.796 506.099,166.833 506.106,166.874C506.12,166.908 506.125,166.941 506.121,166.975C506.118,167.009 506.123,167.043 506.137,167.077L506.137,167.178C506.143,167.212 506.145,167.25 506.142,167.29C506.138,167.331 506.137,167.368 506.137,167.402L506.137,169.952C506.137,170.006 506.138,170.072 506.142,170.15C506.145,170.228 506.145,170.303 506.142,170.374C506.138,170.445 506.13,170.511 506.116,170.572C506.103,170.633 506.082,170.673 506.055,170.694C506.008,170.734 505.92,170.755 505.791,170.755L505.532,170.755C505.447,170.755 505.385,170.728 505.344,170.673C505.31,170.626 505.293,170.57 505.293,170.506L505.293,167.94C505.293,167.758 505.295,167.563 505.298,167.356C505.302,167.15 505.28,166.972 505.232,166.823C505.151,166.593 505.016,166.423 504.826,166.315C504.772,166.281 504.714,166.252 504.653,166.228C504.592,166.205 504.525,166.186 504.45,166.173C504.423,166.166 504.382,166.162 504.328,166.162C504.301,166.156 504.269,166.149 504.232,166.142C504.194,166.135 504.159,166.139 504.125,166.152C504.098,166.159 504.071,166.161 504.044,166.157C504.017,166.154 503.986,166.156 503.952,166.162C503.891,166.176 503.829,166.188 503.764,166.198C503.7,166.208 503.641,166.227 503.586,166.254C503.356,166.349 503.173,166.477 503.038,166.64C502.902,166.803 502.797,167.009 502.723,167.26C502.709,167.307 502.699,167.358 502.692,167.412C502.686,167.466 502.675,167.52 502.662,167.575C502.655,167.595 502.653,167.617 502.657,167.641C502.66,167.664 502.659,167.686 502.652,167.707C502.645,167.741 502.645,167.774 502.652,167.808C502.659,167.842 502.659,167.876 502.652,167.91L502.652,169.952C502.652,170.006 502.653,170.069 502.657,170.14C502.66,170.211 502.66,170.281 502.657,170.348C502.653,170.416 502.648,170.48 502.642,170.541C502.635,170.602 502.621,170.646 502.601,170.673C502.574,170.707 502.542,170.726 502.504,170.729C502.467,170.733 502.425,170.741 502.377,170.755L502.235,170.755C502.161,170.755 502.09,170.753 502.022,170.75C501.954,170.746 501.903,170.724 501.869,170.684C501.836,170.629 501.817,170.563 501.814,170.485C501.81,170.408 501.809,170.325 501.809,170.237L501.809,164.07C501.809,163.995 501.807,163.915 501.803,163.831C501.8,163.746 501.815,163.68 501.849,163.633C501.876,163.585 501.927,163.551 502.002,163.531C502.015,163.524 502.029,163.523 502.042,163.526C502.056,163.529 502.069,163.528 502.083,163.521Z" style="fill:rgb(51,51,51);fill-rule:nonzero;"/>
        <path d="M512.243,167.9C512.256,167.94 512.263,168.003 512.263,168.088C512.263,168.172 512.26,168.232 512.253,168.266L512.253,168.367C512.246,168.421 512.241,168.47 512.238,168.514C512.234,168.558 512.229,168.608 512.222,168.662C512.209,168.702 512.2,168.743 512.197,168.784C512.194,168.824 512.185,168.865 512.172,168.906C512.144,168.994 512.121,169.082 512.1,169.17C512.08,169.258 512.053,169.339 512.019,169.414C511.877,169.739 511.687,170.011 511.45,170.231C511.213,170.452 510.922,170.619 510.576,170.734C510.502,170.761 510.422,170.782 510.338,170.795C510.253,170.809 510.167,170.822 510.079,170.836C510.038,170.843 509.996,170.848 509.952,170.851C509.908,170.855 509.865,170.856 509.825,170.856C509.798,170.863 509.759,170.866 509.708,170.866C509.657,170.866 509.621,170.863 509.601,170.856C509.574,170.85 509.547,170.848 509.52,170.851C509.493,170.855 509.469,170.853 509.449,170.846L509.388,170.846L509.144,170.816C509.049,170.789 508.958,170.761 508.87,170.734C508.782,170.707 508.697,170.677 508.616,170.643C508.311,170.507 508.06,170.331 507.864,170.115C507.667,169.898 507.505,169.634 507.376,169.322C507.342,169.254 507.317,169.187 507.3,169.119C507.283,169.051 507.268,168.98 507.254,168.906C507.241,168.879 507.236,168.857 507.239,168.84C507.242,168.823 507.241,168.801 507.234,168.774C507.22,168.719 507.212,168.663 507.208,168.606C507.205,168.548 507.197,168.492 507.183,168.438L507.183,168.352C507.183,168.328 507.18,168.299 507.173,168.266C507.166,168.232 507.163,168.172 507.163,168.088C507.163,168.003 507.17,167.94 507.183,167.9C507.197,167.852 507.2,167.805 507.193,167.758C507.186,167.71 507.19,167.663 507.203,167.615C507.21,167.581 507.215,167.553 507.219,167.529C507.222,167.505 507.227,167.476 507.234,167.443C507.254,167.361 507.273,167.28 507.29,167.199C507.307,167.117 507.332,167.04 507.366,166.965C507.468,166.714 507.591,166.489 507.737,166.289C507.882,166.09 508.06,165.922 508.27,165.787C508.351,165.732 508.436,165.687 508.524,165.649C508.612,165.612 508.704,165.573 508.799,165.533C508.88,165.499 508.968,165.477 509.063,165.467C509.157,165.456 509.252,165.438 509.347,165.411C509.395,165.411 509.44,165.409 509.484,165.406C509.528,165.402 509.571,165.397 509.611,165.39C510.214,165.384 510.715,165.509 511.115,165.766C511.515,166.024 511.802,166.359 511.979,166.772C512.012,166.84 512.04,166.908 512.06,166.975C512.08,167.043 512.104,167.114 512.131,167.189C512.151,167.263 512.168,167.343 512.182,167.427C512.195,167.512 512.212,167.598 512.233,167.686C512.239,167.72 512.241,167.756 512.238,167.793C512.234,167.83 512.236,167.866 512.243,167.9ZM511.338,168.479C511.352,168.431 511.357,168.377 511.354,168.316C511.35,168.255 511.349,168.198 511.349,168.144C511.349,167.879 511.325,167.656 511.278,167.473C511.257,167.419 511.24,167.365 511.227,167.311C511.213,167.256 511.196,167.206 511.176,167.158C510.986,166.718 510.685,166.413 510.272,166.244C510.224,166.223 510.173,166.208 510.119,166.198C510.065,166.188 510.011,166.176 509.957,166.162C509.903,166.149 509.845,166.142 509.784,166.142L509.601,166.142L509.418,166.173C509.351,166.186 509.288,166.201 509.23,166.218C509.173,166.235 509.117,166.257 509.063,166.284C509.015,166.298 508.971,166.318 508.931,166.345C508.89,166.372 508.853,166.4 508.819,166.427C508.656,166.542 508.524,166.681 508.423,166.843C508.321,167.006 508.233,167.195 508.158,167.412C508.138,167.48 508.125,167.549 508.118,167.62C508.111,167.692 508.101,167.764 508.087,167.839C508.081,167.866 508.077,167.91 508.077,167.971C508.07,167.991 508.069,168.015 508.072,168.042C508.075,168.069 508.077,168.1 508.077,168.133L508.077,168.337C508.077,168.404 508.084,168.465 508.097,168.52L508.118,168.641C508.131,168.709 508.143,168.775 508.153,168.84C508.164,168.904 508.182,168.963 508.209,169.017C508.277,169.18 508.357,169.332 508.448,169.475C508.539,169.617 508.653,169.735 508.788,169.83C508.822,169.85 508.853,169.867 508.88,169.881C508.907,169.895 508.937,169.911 508.971,169.932C509.025,169.966 509.085,169.994 509.149,170.018C509.213,170.042 509.283,170.064 509.357,170.084C509.391,170.098 509.423,170.103 509.454,170.099C509.484,170.096 509.516,170.098 509.55,170.104C509.571,170.111 509.613,170.118 509.677,170.125C509.742,170.132 509.791,170.128 509.825,170.115C509.852,170.108 509.879,170.106 509.906,170.11C509.933,170.113 509.96,170.108 509.987,170.094C510.041,170.081 510.096,170.069 510.15,170.059C510.204,170.049 510.255,170.033 510.302,170.013C510.532,169.918 510.719,169.786 510.861,169.617C511.003,169.447 511.122,169.248 511.217,169.017C511.25,168.936 511.272,168.85 511.283,168.758C511.293,168.667 511.311,168.574 511.338,168.479Z" style="fill:rgb(51,51,51);fill-rule:nonzero;"/>
        <path d="M513.563,165.512L513.858,165.512C513.96,165.512 514.031,165.539 514.071,165.594C514.105,165.648 514.124,165.715 514.127,165.797C514.131,165.878 514.132,165.959 514.132,166.041L514.132,169.002C514.132,169.161 514.149,169.298 514.183,169.414C514.292,169.718 514.495,169.932 514.793,170.054C514.942,170.115 515.121,170.137 515.331,170.12C515.541,170.103 515.711,170.067 515.839,170.013C516.063,169.918 516.241,169.798 516.373,169.652C516.505,169.507 516.608,169.315 516.683,169.078C516.703,169.024 516.716,168.97 516.723,168.916C516.73,168.862 516.74,168.804 516.754,168.743C516.76,168.709 516.762,168.679 516.759,168.652C516.755,168.625 516.76,168.594 516.774,168.56L516.774,168.347C516.788,168.293 516.791,168.23 516.784,168.159C516.777,168.088 516.774,168.022 516.774,167.961L516.774,166.091C516.774,166.01 516.772,165.924 516.769,165.832C516.766,165.741 516.781,165.668 516.815,165.614C516.842,165.58 516.874,165.558 516.911,165.548C516.948,165.538 516.994,165.526 517.048,165.512L517.201,165.512C517.282,165.512 517.355,165.516 517.419,165.522C517.484,165.529 517.533,165.56 517.566,165.614C517.6,165.648 517.617,165.697 517.617,165.761L517.617,170.298C517.617,170.379 517.616,170.455 517.612,170.526C517.609,170.597 517.583,170.65 517.536,170.684C517.509,170.704 517.468,170.719 517.414,170.729C517.36,170.739 517.301,170.746 517.236,170.75C517.172,170.753 517.111,170.751 517.053,170.745C516.996,170.738 516.954,170.724 516.926,170.704C516.893,170.677 516.862,170.633 516.835,170.572C516.828,170.545 516.823,170.507 516.82,170.46C516.816,170.413 516.811,170.367 516.804,170.323C516.798,170.279 516.784,170.243 516.764,170.216C516.744,170.189 516.713,170.179 516.672,170.186C516.618,170.199 516.564,170.238 516.51,170.303C516.456,170.367 516.405,170.416 516.357,170.45C516.208,170.558 516.039,170.653 515.849,170.734C515.775,170.768 515.699,170.79 515.621,170.8C515.543,170.811 515.463,170.826 515.382,170.846C515.348,170.853 515.313,170.853 515.275,170.846C515.238,170.839 515.203,170.843 515.169,170.856C515.101,170.87 515.04,170.87 514.986,170.856L514.884,170.856C514.85,170.843 514.811,170.836 514.767,170.836C514.723,170.836 514.684,170.833 514.651,170.826C514.624,170.812 514.598,170.807 514.574,170.811C514.551,170.814 514.522,170.809 514.488,170.795C514.434,170.782 514.381,170.768 514.331,170.755C514.28,170.741 514.227,170.721 514.173,170.694C513.997,170.619 513.85,170.519 513.731,170.394C513.613,170.269 513.516,170.118 513.442,169.942C513.414,169.881 513.394,169.818 513.381,169.754C513.367,169.69 513.354,169.624 513.34,169.556C513.326,169.515 513.321,169.476 513.325,169.439C513.328,169.402 513.323,169.359 513.309,169.312C513.303,169.298 513.299,169.28 513.299,169.256C513.299,169.232 513.296,169.21 513.289,169.19L513.289,169.089C513.282,169.061 513.281,169.029 513.284,168.992C513.287,168.955 513.289,168.919 513.289,168.885L513.289,165.776C513.289,165.715 513.303,165.665 513.33,165.624C513.357,165.577 513.408,165.543 513.482,165.522C513.496,165.516 513.509,165.514 513.523,165.517C513.536,165.521 513.55,165.519 513.563,165.512Z" style="fill:rgb(51,51,51);fill-rule:nonzero;"/>
        <path d="M520.543,165.39C521.031,165.384 521.441,165.439 521.773,165.558C522.105,165.676 522.362,165.885 522.545,166.183C522.592,166.257 522.629,166.333 522.657,166.411C522.684,166.489 522.711,166.576 522.738,166.67C522.751,166.718 522.755,166.767 522.748,166.818C522.741,166.869 522.731,166.908 522.718,166.935C522.704,166.948 522.687,166.96 522.667,166.97C522.646,166.98 522.629,166.992 522.616,167.006C522.582,167.019 522.548,167.023 522.514,167.016C522.48,167.009 522.447,167.009 522.413,167.016C522.359,167.029 522.287,167.031 522.199,167.021C522.111,167.011 522.05,166.996 522.017,166.975C521.962,166.941 521.927,166.896 521.91,166.838C521.893,166.781 521.868,166.725 521.834,166.67C521.773,166.562 521.688,166.464 521.58,166.376C521.505,166.322 521.424,166.281 521.336,166.254C521.248,166.227 521.153,166.2 521.051,166.173C521.017,166.159 520.984,166.154 520.95,166.157C520.916,166.161 520.882,166.159 520.848,166.152C520.807,166.139 520.757,166.132 520.696,166.132C520.635,166.132 520.584,166.139 520.543,166.152L520.482,166.152C520.449,166.159 520.415,166.164 520.381,166.168C520.347,166.171 520.313,166.176 520.279,166.183C520.103,166.223 519.957,166.281 519.842,166.355C519.727,166.43 519.649,166.555 519.609,166.731C519.595,166.779 519.593,166.826 519.604,166.874C519.614,166.921 519.626,166.962 519.639,166.996C519.68,167.097 519.729,167.17 519.786,167.214C519.844,167.258 519.917,167.307 520.005,167.361C520.113,167.429 520.235,167.478 520.371,167.509C520.506,167.539 520.642,167.575 520.777,167.615C520.865,167.642 520.953,167.663 521.041,167.676C521.129,167.69 521.217,167.71 521.305,167.737C521.448,167.778 521.586,167.817 521.722,167.854C521.857,167.891 521.993,167.937 522.128,167.991C522.162,168.005 522.196,168.018 522.23,168.032C522.264,168.045 522.298,168.062 522.331,168.083C522.467,168.164 522.585,168.255 522.687,168.357C522.789,168.459 522.873,168.587 522.941,168.743C522.955,168.79 522.968,168.855 522.982,168.936C522.995,168.984 523.004,169.033 523.007,169.083C523.01,169.134 523.012,169.19 523.012,169.251L523.012,169.353C522.999,169.4 522.992,169.447 522.992,169.495C522.992,169.542 522.985,169.59 522.972,169.637C522.951,169.712 522.928,169.783 522.9,169.85C522.873,169.918 522.843,169.979 522.809,170.033C522.701,170.209 522.562,170.35 522.392,170.455C522.223,170.56 522.033,170.65 521.823,170.724C521.763,170.745 521.7,170.76 521.636,170.77C521.571,170.78 521.509,170.795 521.448,170.816C521.38,170.829 521.312,170.836 521.244,170.836C521.177,170.836 521.109,170.843 521.041,170.856L520.94,170.856C520.906,170.863 520.858,170.866 520.797,170.866C520.736,170.866 520.689,170.863 520.655,170.856L520.543,170.856C520.503,170.843 520.459,170.838 520.411,170.841C520.364,170.844 520.323,170.839 520.289,170.826C520.255,170.819 520.211,170.816 520.157,170.816C520.103,170.802 520.051,170.79 520,170.78C519.949,170.77 519.896,170.755 519.842,170.734C519.632,170.667 519.449,170.582 519.294,170.48C519.138,170.379 519.002,170.247 518.887,170.084C518.826,169.996 518.776,169.905 518.735,169.81C518.694,169.715 518.657,169.61 518.623,169.495C518.61,169.454 518.604,169.405 518.608,169.348C518.611,169.29 518.62,169.244 518.633,169.21C518.654,169.183 518.687,169.156 518.735,169.129C518.769,169.116 518.816,169.107 518.877,169.104C518.938,169.1 518.999,169.102 519.06,169.109C519.121,169.116 519.18,169.124 519.238,169.134C519.295,169.144 519.334,169.156 519.355,169.17C519.402,169.204 519.434,169.253 519.451,169.317C519.468,169.381 519.49,169.441 519.517,169.495C519.585,169.644 519.676,169.759 519.792,169.84C519.873,169.901 519.964,169.949 520.066,169.983C520.167,170.016 520.276,170.05 520.391,170.084L520.604,170.115L520.665,170.115C520.713,170.128 520.775,170.135 520.853,170.135C520.931,170.135 520.997,170.128 521.051,170.115C521.099,170.115 521.136,170.111 521.163,170.104C521.204,170.098 521.244,170.093 521.285,170.089C521.326,170.086 521.363,170.081 521.397,170.074C521.593,170.02 521.749,169.949 521.864,169.861C521.979,169.773 522.061,169.624 522.108,169.414C522.121,169.38 522.125,169.342 522.118,169.302C522.111,169.261 522.105,169.231 522.098,169.21C522.064,169.082 522.017,168.985 521.956,168.921C521.895,168.857 521.817,168.797 521.722,168.743C521.661,168.702 521.593,168.669 521.519,168.641C521.444,168.614 521.37,168.587 521.295,168.56C521.275,168.553 521.256,168.55 521.239,168.55C521.222,168.55 521.204,168.543 521.183,168.53C520.953,168.455 520.714,168.399 520.467,168.362C520.22,168.325 519.988,168.262 519.771,168.174C519.703,168.147 519.639,168.123 519.578,168.103C519.517,168.083 519.46,168.056 519.405,168.022C519.277,167.947 519.158,167.863 519.05,167.768C518.941,167.673 518.857,167.554 518.796,167.412C518.776,167.365 518.76,167.317 518.75,167.27C518.74,167.222 518.728,167.172 518.715,167.117C518.694,167.036 518.687,166.943 518.694,166.838C518.701,166.733 518.711,166.643 518.725,166.569C518.738,166.535 518.747,166.506 518.75,166.482C518.753,166.459 518.762,166.433 518.776,166.406C518.836,166.251 518.919,166.115 519.024,166C519.129,165.885 519.25,165.783 519.385,165.695C519.487,165.634 519.598,165.585 519.72,165.548C519.842,165.511 519.971,165.475 520.106,165.441C520.154,165.434 520.2,165.428 520.244,165.421C520.288,165.414 520.337,165.407 520.391,165.4C520.411,165.394 520.438,165.394 520.472,165.4C520.506,165.407 520.53,165.404 520.543,165.39Z" style="fill:rgb(51,51,51);fill-rule:nonzero;"/>
        <path d="M528.549,167.92C528.563,167.988 528.565,168.064 528.554,168.149C528.544,168.233 528.522,168.293 528.488,168.327C528.454,168.354 528.405,168.372 528.341,168.382C528.277,168.393 528.204,168.398 528.123,168.398C528.041,168.398 527.96,168.396 527.879,168.393C527.797,168.389 527.726,168.387 527.665,168.387L525.064,168.387C525.01,168.387 524.956,168.389 524.902,168.393C524.848,168.396 524.804,168.408 524.77,168.428C524.743,168.442 524.716,168.469 524.689,168.509C524.675,168.53 524.661,168.558 524.648,168.596C524.634,168.633 524.634,168.669 524.648,168.702C524.655,168.736 524.658,168.767 524.658,168.794C524.658,168.821 524.661,168.848 524.668,168.875C524.682,168.929 524.695,168.985 524.709,169.043C524.722,169.1 524.743,169.156 524.77,169.21C524.926,169.576 525.183,169.837 525.542,169.993C525.583,170.013 525.627,170.03 525.674,170.044C525.721,170.057 525.769,170.071 525.816,170.084C525.837,170.091 525.87,170.094 525.918,170.094C526.013,170.121 526.138,170.135 526.294,170.135C526.45,170.135 526.575,170.121 526.67,170.094C526.765,170.067 526.851,170.038 526.929,170.008C527.007,169.977 527.08,169.939 527.147,169.891C527.222,169.844 527.286,169.788 527.34,169.723C527.394,169.659 527.442,169.59 527.483,169.515C527.523,169.447 527.559,169.376 527.589,169.302C527.62,169.227 527.672,169.173 527.747,169.139C527.774,169.126 527.818,169.116 527.879,169.109C527.94,169.102 528.001,169.1 528.062,169.104C528.123,169.107 528.18,169.112 528.234,169.119C528.289,169.126 528.326,169.139 528.346,169.16C528.414,169.207 528.431,169.285 528.397,169.393C528.343,169.576 528.272,169.739 528.184,169.881C528.048,170.098 527.894,170.276 527.721,170.414C527.549,170.553 527.33,170.667 527.066,170.755C526.998,170.782 526.931,170.8 526.863,170.811C526.795,170.821 526.724,170.833 526.649,170.846C526.616,170.853 526.583,170.856 526.553,170.856C526.522,170.856 526.49,170.86 526.456,170.866L526.355,170.866C526.321,170.873 526.282,170.877 526.238,170.877C526.194,170.877 526.158,170.873 526.131,170.866L526.04,170.866C526.006,170.86 525.975,170.856 525.948,170.856C525.921,170.856 525.894,170.853 525.867,170.846C525.833,170.839 525.796,170.834 525.755,170.831C525.715,170.828 525.677,170.822 525.644,170.816C525.583,170.802 525.522,170.787 525.461,170.77C525.4,170.753 525.342,170.734 525.288,170.714C525.261,170.701 525.237,170.692 525.217,170.689C525.197,170.685 525.173,170.677 525.146,170.663C525.044,170.616 524.936,170.558 524.821,170.491C524.624,170.362 524.457,170.204 524.318,170.018C524.179,169.832 524.062,169.624 523.967,169.393C523.933,169.319 523.908,169.241 523.891,169.16C523.874,169.078 523.852,168.997 523.825,168.916C523.818,168.889 523.815,168.865 523.815,168.845C523.815,168.824 523.811,168.797 523.805,168.763C523.791,168.709 523.781,168.652 523.774,168.591C523.767,168.53 523.757,168.469 523.744,168.408L523.744,168.266C523.737,168.238 523.732,168.2 523.728,168.149C523.725,168.098 523.727,168.056 523.734,168.022L523.734,167.91C523.747,167.876 523.752,167.841 523.749,167.803C523.745,167.766 523.747,167.73 523.754,167.697C523.781,167.588 523.803,167.48 523.82,167.371C523.837,167.263 523.866,167.162 523.906,167.067C523.94,166.992 523.972,166.916 524.003,166.838C524.033,166.76 524.069,166.684 524.109,166.609C524.258,166.372 524.428,166.168 524.617,165.995C524.807,165.822 525.041,165.678 525.318,165.563C525.4,165.529 525.483,165.504 525.567,165.487C525.652,165.47 525.742,165.451 525.837,165.431C525.87,165.424 525.901,165.419 525.928,165.416C525.955,165.412 525.986,165.411 526.02,165.411C526.033,165.404 526.05,165.404 526.07,165.411C526.091,165.417 526.108,165.414 526.121,165.4C526.406,165.394 526.653,165.422 526.863,165.487C527.073,165.551 527.262,165.638 527.432,165.746C527.466,165.759 527.493,165.778 527.513,165.802C527.533,165.825 527.557,165.844 527.584,165.858C527.638,165.898 527.694,165.946 527.752,166C527.809,166.054 527.858,166.108 527.899,166.162C528.007,166.305 528.099,166.44 528.173,166.569C528.221,166.643 528.258,166.725 528.285,166.813C528.312,166.901 528.343,166.989 528.377,167.077C528.41,167.165 528.436,167.256 528.453,167.351C528.47,167.446 528.492,167.541 528.519,167.636C528.526,167.683 528.531,167.73 528.534,167.778C528.537,167.825 528.543,167.873 528.549,167.92ZM527.564,167.575C527.584,167.548 527.601,167.512 527.615,167.468C527.628,167.424 527.628,167.378 527.615,167.331C527.574,167.182 527.516,167.043 527.442,166.914C527.347,166.759 527.242,166.626 527.127,166.518C527.012,166.41 526.863,166.318 526.68,166.244C526.632,166.23 526.585,166.218 526.538,166.208C526.49,166.198 526.439,166.186 526.385,166.173C526.331,166.159 526.274,166.152 526.213,166.152L526.04,166.152C526.02,166.166 525.996,166.171 525.969,166.168C525.942,166.164 525.918,166.166 525.898,166.173C525.843,166.186 525.791,166.198 525.74,166.208C525.689,166.218 525.64,166.23 525.593,166.244C525.396,166.325 525.239,166.427 525.12,166.549C525.002,166.67 524.895,166.823 524.8,167.006C524.78,167.04 524.76,167.082 524.739,167.133C524.719,167.184 524.702,167.239 524.689,167.3C524.675,167.361 524.672,167.419 524.678,167.473C524.685,167.527 524.709,167.568 524.75,167.595C524.804,167.636 524.897,167.654 525.029,167.651C525.161,167.647 525.274,167.646 525.369,167.646L526.914,167.646C527.015,167.646 527.137,167.647 527.279,167.651C527.422,167.654 527.516,167.629 527.564,167.575Z" style="fill:rgb(51,51,51);fill-rule:nonzero;"/>
    </g>
</svg>
